G04 (created by PCBNEW (22-Jun-2014 BZR 4027)-stable) date Thu 10 Nov 2016 11:36:34 GMT*
%MOIN*%
G04 Gerber Fmt 3.4, Leading zero omitted, Abs format*
%FSLAX34Y34*%
G01*
G70*
G90*
G04 APERTURE LIST*
%ADD10C,0.00590551*%
%ADD11C,0.005*%
%ADD12C,0.006*%
G04 APERTURE END LIST*
G54D10*
X110950Y-25700D02*
X111500Y-25700D01*
X111500Y-25700D02*
X111500Y-24500D01*
X111500Y-24500D02*
X110950Y-24500D01*
X110950Y-21500D02*
X110950Y-21450D01*
X110950Y-21450D02*
X124150Y-21450D01*
X124150Y-21450D02*
X124150Y-28750D01*
X124150Y-28750D02*
X110950Y-28750D01*
X110950Y-28750D02*
X110950Y-21500D01*
X117300Y-37800D02*
G75*
G03X117300Y-37800I-2350J0D01*
G74*
G01*
X114350Y-32250D02*
X116950Y-32250D01*
X116950Y-32250D02*
X116950Y-33500D01*
X116950Y-33500D02*
X114350Y-33500D01*
X114350Y-33500D02*
X114350Y-32250D01*
X127000Y-18750D02*
X128750Y-18750D01*
X128750Y-18750D02*
X128750Y-20150D01*
X128750Y-20150D02*
X127000Y-20150D01*
X124400Y-19450D02*
X124400Y-17950D01*
X124400Y-17950D02*
X127000Y-17950D01*
X127000Y-17950D02*
X127000Y-20950D01*
X127000Y-20950D02*
X124400Y-20950D01*
X124400Y-20950D02*
X124400Y-19450D01*
X110950Y-20150D02*
X109200Y-20150D01*
X109200Y-20150D02*
X109200Y-18750D01*
X109200Y-18750D02*
X110950Y-18750D01*
X113550Y-19450D02*
X113550Y-20950D01*
X113550Y-20950D02*
X110950Y-20950D01*
X110950Y-20950D02*
X110950Y-17950D01*
X110950Y-17950D02*
X113550Y-17950D01*
X113550Y-17950D02*
X113550Y-19450D01*
X124000Y-41400D02*
X120700Y-41400D01*
X120700Y-41400D02*
X120700Y-39900D01*
X120700Y-39900D02*
X124000Y-39900D01*
X124000Y-39900D02*
X124000Y-41400D01*
X118100Y-35600D02*
X117900Y-36350D01*
X119700Y-35600D02*
X119900Y-36350D01*
X118900Y-35600D02*
X118900Y-36400D01*
X118100Y-35600D02*
X118100Y-34300D01*
X118100Y-34300D02*
X119700Y-34300D01*
X119700Y-34300D02*
X119700Y-35600D01*
X118100Y-35600D02*
X119700Y-35600D01*
X124150Y-19450D02*
G75*
G03X124150Y-19450I-1200J0D01*
G74*
G01*
X116200Y-19450D02*
G75*
G03X116200Y-19450I-1200J0D01*
G74*
G01*
X127050Y-40350D02*
G75*
G03X127050Y-40350I-1200J0D01*
G74*
G01*
X113300Y-40350D02*
G75*
G03X113300Y-40350I-1200J0D01*
G74*
G01*
X127000Y-21450D02*
X110950Y-21450D01*
X110950Y-21450D02*
X110950Y-34150D01*
X110950Y-34150D02*
X127000Y-34150D01*
X127000Y-34150D02*
X127000Y-21450D01*
X123350Y-39050D02*
X123350Y-38850D01*
X123350Y-38850D02*
X123850Y-38850D01*
X123850Y-38850D02*
X123850Y-39050D01*
X122450Y-39050D02*
X124750Y-39050D01*
X122450Y-37150D02*
X124750Y-37150D01*
X122450Y-37150D02*
X122450Y-39050D01*
X124750Y-37150D02*
X124750Y-39050D01*
X118950Y-29100D02*
X118950Y-35250D01*
X118950Y-35250D02*
X110950Y-35250D01*
X110950Y-35250D02*
X110950Y-29100D01*
X118950Y-29100D02*
X110950Y-29100D01*
G54D11*
X112250Y-33850D02*
X113000Y-33850D01*
X113000Y-33850D02*
X113000Y-30850D01*
X113000Y-30850D02*
X112000Y-30850D01*
X112000Y-30850D02*
X112000Y-33850D01*
X112000Y-33850D02*
X112250Y-33850D01*
X112500Y-34100D02*
X112500Y-33850D01*
X112500Y-30850D02*
X112500Y-30600D01*
X112250Y-33850D02*
X112000Y-33600D01*
X119100Y-40850D02*
X119100Y-40100D01*
X119100Y-40100D02*
X116100Y-40100D01*
X116100Y-40100D02*
X116100Y-41100D01*
X116100Y-41100D02*
X119100Y-41100D01*
X119100Y-41100D02*
X119100Y-40850D01*
X119350Y-40600D02*
X119100Y-40600D01*
X116100Y-40600D02*
X115850Y-40600D01*
X119100Y-40850D02*
X118850Y-41100D01*
G54D10*
X127250Y-31450D02*
X127350Y-31450D01*
X127350Y-31450D02*
X127350Y-34100D01*
X127350Y-34100D02*
X127250Y-34100D01*
X127250Y-36400D02*
X119150Y-36400D01*
X119150Y-36400D02*
X119150Y-29100D01*
X119150Y-29100D02*
X127250Y-29100D01*
X127250Y-29100D02*
X127250Y-36400D01*
X114531Y-25146D02*
X114719Y-25146D01*
X114494Y-25259D02*
X114625Y-24865D01*
X114756Y-25259D01*
X115112Y-25259D02*
X114981Y-25071D01*
X114887Y-25259D02*
X114887Y-24865D01*
X115037Y-24865D01*
X115075Y-24884D01*
X115094Y-24903D01*
X115112Y-24940D01*
X115112Y-24996D01*
X115094Y-25034D01*
X115075Y-25053D01*
X115037Y-25071D01*
X114887Y-25071D01*
X115281Y-25259D02*
X115281Y-24865D01*
X115375Y-24865D01*
X115431Y-24884D01*
X115469Y-24921D01*
X115487Y-24959D01*
X115506Y-25034D01*
X115506Y-25090D01*
X115487Y-25165D01*
X115469Y-25203D01*
X115431Y-25240D01*
X115375Y-25259D01*
X115281Y-25259D01*
X115675Y-24865D02*
X115675Y-25184D01*
X115693Y-25221D01*
X115712Y-25240D01*
X115750Y-25259D01*
X115825Y-25259D01*
X115862Y-25240D01*
X115881Y-25221D01*
X115900Y-25184D01*
X115900Y-24865D01*
X116087Y-25259D02*
X116087Y-24865D01*
X116275Y-25259D02*
X116275Y-24865D01*
X116500Y-25259D01*
X116500Y-24865D01*
X116762Y-24865D02*
X116837Y-24865D01*
X116875Y-24884D01*
X116912Y-24921D01*
X116931Y-24996D01*
X116931Y-25128D01*
X116912Y-25203D01*
X116875Y-25240D01*
X116837Y-25259D01*
X116762Y-25259D01*
X116725Y-25240D01*
X116687Y-25203D01*
X116668Y-25128D01*
X116668Y-24996D01*
X116687Y-24921D01*
X116725Y-24884D01*
X116762Y-24865D01*
X117006Y-25296D02*
X117306Y-25296D01*
X117400Y-25259D02*
X117400Y-24865D01*
X117550Y-24865D01*
X117587Y-24884D01*
X117606Y-24903D01*
X117624Y-24940D01*
X117624Y-24996D01*
X117606Y-25034D01*
X117587Y-25053D01*
X117550Y-25071D01*
X117400Y-25071D01*
X118018Y-25259D02*
X117887Y-25071D01*
X117793Y-25259D02*
X117793Y-24865D01*
X117943Y-24865D01*
X117981Y-24884D01*
X117999Y-24903D01*
X118018Y-24940D01*
X118018Y-24996D01*
X117999Y-25034D01*
X117981Y-25053D01*
X117943Y-25071D01*
X117793Y-25071D01*
X118262Y-24865D02*
X118337Y-24865D01*
X118374Y-24884D01*
X118412Y-24921D01*
X118431Y-24996D01*
X118431Y-25128D01*
X118412Y-25203D01*
X118374Y-25240D01*
X118337Y-25259D01*
X118262Y-25259D01*
X118224Y-25240D01*
X118187Y-25203D01*
X118168Y-25128D01*
X118168Y-24996D01*
X118187Y-24921D01*
X118224Y-24884D01*
X118262Y-24865D01*
X118506Y-25296D02*
X118806Y-25296D01*
X118899Y-25259D02*
X118899Y-24865D01*
X119031Y-25146D01*
X119162Y-24865D01*
X119162Y-25259D01*
X119349Y-25259D02*
X119349Y-24865D01*
X119762Y-25221D02*
X119743Y-25240D01*
X119687Y-25259D01*
X119649Y-25259D01*
X119593Y-25240D01*
X119555Y-25203D01*
X119537Y-25165D01*
X119518Y-25090D01*
X119518Y-25034D01*
X119537Y-24959D01*
X119555Y-24921D01*
X119593Y-24884D01*
X119649Y-24865D01*
X119687Y-24865D01*
X119743Y-24884D01*
X119762Y-24903D01*
X120155Y-25259D02*
X120024Y-25071D01*
X119930Y-25259D02*
X119930Y-24865D01*
X120080Y-24865D01*
X120118Y-24884D01*
X120137Y-24903D01*
X120155Y-24940D01*
X120155Y-24996D01*
X120137Y-25034D01*
X120118Y-25053D01*
X120080Y-25071D01*
X119930Y-25071D01*
X120399Y-24865D02*
X120474Y-24865D01*
X120512Y-24884D01*
X120549Y-24921D01*
X120568Y-24996D01*
X120568Y-25128D01*
X120549Y-25203D01*
X120512Y-25240D01*
X120474Y-25259D01*
X120399Y-25259D01*
X120362Y-25240D01*
X120324Y-25203D01*
X120305Y-25128D01*
X120305Y-24996D01*
X120324Y-24921D01*
X120362Y-24884D01*
X120399Y-24865D01*
X113722Y-37040D02*
X113778Y-37059D01*
X113872Y-37059D01*
X113909Y-37040D01*
X113928Y-37021D01*
X113947Y-36984D01*
X113947Y-36946D01*
X113928Y-36909D01*
X113909Y-36890D01*
X113872Y-36871D01*
X113797Y-36853D01*
X113759Y-36834D01*
X113740Y-36815D01*
X113722Y-36778D01*
X113722Y-36740D01*
X113740Y-36703D01*
X113759Y-36684D01*
X113797Y-36665D01*
X113890Y-36665D01*
X113947Y-36684D01*
X114115Y-37059D02*
X114115Y-36665D01*
X114265Y-36665D01*
X114303Y-36684D01*
X114321Y-36703D01*
X114340Y-36740D01*
X114340Y-36796D01*
X114321Y-36834D01*
X114303Y-36853D01*
X114265Y-36871D01*
X114115Y-36871D01*
X114509Y-36853D02*
X114640Y-36853D01*
X114696Y-37059D02*
X114509Y-37059D01*
X114509Y-36665D01*
X114696Y-36665D01*
X114846Y-36946D02*
X115034Y-36946D01*
X114809Y-37059D02*
X114940Y-36665D01*
X115071Y-37059D01*
X115203Y-37059D02*
X115203Y-36665D01*
X115428Y-37059D02*
X115259Y-36834D01*
X115428Y-36665D02*
X115203Y-36890D01*
X115596Y-36853D02*
X115728Y-36853D01*
X115784Y-37059D02*
X115596Y-37059D01*
X115596Y-36665D01*
X115784Y-36665D01*
X116177Y-37059D02*
X116046Y-36871D01*
X115952Y-37059D02*
X115952Y-36665D01*
X116102Y-36665D01*
X116140Y-36684D01*
X116159Y-36703D01*
X116177Y-36740D01*
X116177Y-36796D01*
X116159Y-36834D01*
X116140Y-36853D01*
X116102Y-36871D01*
X115952Y-36871D01*
X113300Y-38509D02*
X113599Y-38509D01*
X116300Y-38509D02*
X116599Y-38509D01*
X116450Y-38659D02*
X116450Y-38359D01*
X117103Y-19403D02*
X117234Y-19403D01*
X117290Y-19609D02*
X117103Y-19609D01*
X117103Y-19215D01*
X117290Y-19215D01*
X117647Y-19609D02*
X117459Y-19609D01*
X117459Y-19215D01*
X117778Y-19403D02*
X117909Y-19403D01*
X117965Y-19609D02*
X117778Y-19609D01*
X117778Y-19215D01*
X117965Y-19215D01*
X118359Y-19571D02*
X118340Y-19590D01*
X118284Y-19609D01*
X118246Y-19609D01*
X118190Y-19590D01*
X118153Y-19553D01*
X118134Y-19515D01*
X118115Y-19440D01*
X118115Y-19384D01*
X118134Y-19309D01*
X118153Y-19271D01*
X118190Y-19234D01*
X118246Y-19215D01*
X118284Y-19215D01*
X118340Y-19234D01*
X118359Y-19253D01*
X118471Y-19215D02*
X118696Y-19215D01*
X118584Y-19609D02*
X118584Y-19215D01*
X119053Y-19609D02*
X118921Y-19421D01*
X118828Y-19609D02*
X118828Y-19215D01*
X118978Y-19215D01*
X119015Y-19234D01*
X119034Y-19253D01*
X119053Y-19290D01*
X119053Y-19346D01*
X119034Y-19384D01*
X119015Y-19403D01*
X118978Y-19421D01*
X118828Y-19421D01*
X119296Y-19215D02*
X119371Y-19215D01*
X119409Y-19234D01*
X119446Y-19271D01*
X119465Y-19346D01*
X119465Y-19478D01*
X119446Y-19553D01*
X119409Y-19590D01*
X119371Y-19609D01*
X119296Y-19609D01*
X119259Y-19590D01*
X119221Y-19553D01*
X119203Y-19478D01*
X119203Y-19346D01*
X119221Y-19271D01*
X119259Y-19234D01*
X119296Y-19215D01*
X119540Y-19646D02*
X119840Y-19646D01*
X119934Y-19609D02*
X119934Y-19215D01*
X119934Y-19403D02*
X120159Y-19403D01*
X120159Y-19609D02*
X120159Y-19215D01*
X120327Y-19496D02*
X120515Y-19496D01*
X120290Y-19609D02*
X120421Y-19215D01*
X120552Y-19609D01*
X120627Y-19215D02*
X120852Y-19215D01*
X120740Y-19609D02*
X120740Y-19215D01*
X113137Y-32665D02*
X113381Y-32665D01*
X113250Y-32815D01*
X113306Y-32815D01*
X113344Y-32834D01*
X113362Y-32853D01*
X113381Y-32890D01*
X113381Y-32984D01*
X113362Y-33021D01*
X113344Y-33040D01*
X113306Y-33059D01*
X113194Y-33059D01*
X113156Y-33040D01*
X113137Y-33021D01*
X113550Y-33021D02*
X113569Y-33040D01*
X113550Y-33059D01*
X113531Y-33040D01*
X113550Y-33021D01*
X113550Y-33059D01*
X113700Y-32665D02*
X113943Y-32665D01*
X113812Y-32815D01*
X113868Y-32815D01*
X113906Y-32834D01*
X113925Y-32853D01*
X113943Y-32890D01*
X113943Y-32984D01*
X113925Y-33021D01*
X113906Y-33040D01*
X113868Y-33059D01*
X113756Y-33059D01*
X113718Y-33040D01*
X113700Y-33021D01*
X114018Y-33096D02*
X114318Y-33096D01*
X114356Y-32665D02*
X114487Y-33059D01*
X114618Y-32665D01*
X114825Y-32665D02*
X114900Y-32665D01*
X114937Y-32684D01*
X114975Y-32721D01*
X114993Y-32796D01*
X114993Y-32928D01*
X114975Y-33003D01*
X114937Y-33040D01*
X114900Y-33059D01*
X114825Y-33059D01*
X114787Y-33040D01*
X114750Y-33003D01*
X114731Y-32928D01*
X114731Y-32796D01*
X114750Y-32721D01*
X114787Y-32684D01*
X114825Y-32665D01*
X115350Y-33059D02*
X115162Y-33059D01*
X115162Y-32665D01*
X115425Y-32665D02*
X115650Y-32665D01*
X115537Y-33059D02*
X115537Y-32665D01*
X115762Y-32946D02*
X115949Y-32946D01*
X115724Y-33059D02*
X115856Y-32665D01*
X115987Y-33059D01*
X116324Y-32684D02*
X116287Y-32665D01*
X116231Y-32665D01*
X116174Y-32684D01*
X116137Y-32721D01*
X116118Y-32759D01*
X116099Y-32834D01*
X116099Y-32890D01*
X116118Y-32965D01*
X116137Y-33003D01*
X116174Y-33040D01*
X116231Y-33059D01*
X116268Y-33059D01*
X116324Y-33040D01*
X116343Y-33021D01*
X116343Y-32890D01*
X116268Y-32890D01*
X116512Y-32853D02*
X116643Y-32853D01*
X116699Y-33059D02*
X116512Y-33059D01*
X116512Y-32665D01*
X116699Y-32665D01*
X116774Y-33096D02*
X117074Y-33096D01*
X117393Y-33059D02*
X117262Y-32871D01*
X117168Y-33059D02*
X117168Y-32665D01*
X117318Y-32665D01*
X117356Y-32684D01*
X117374Y-32703D01*
X117393Y-32740D01*
X117393Y-32796D01*
X117374Y-32834D01*
X117356Y-32853D01*
X117318Y-32871D01*
X117168Y-32871D01*
X117562Y-32853D02*
X117693Y-32853D01*
X117749Y-33059D02*
X117562Y-33059D01*
X117562Y-32665D01*
X117749Y-32665D01*
X118124Y-32684D02*
X118087Y-32665D01*
X118030Y-32665D01*
X117974Y-32684D01*
X117937Y-32721D01*
X117918Y-32759D01*
X117899Y-32834D01*
X117899Y-32890D01*
X117918Y-32965D01*
X117937Y-33003D01*
X117974Y-33040D01*
X118030Y-33059D01*
X118068Y-33059D01*
X118124Y-33040D01*
X118143Y-33021D01*
X118143Y-32890D01*
X118068Y-32890D01*
X118056Y-33946D02*
X118243Y-33946D01*
X118018Y-34059D02*
X118150Y-33665D01*
X118281Y-34059D01*
X118375Y-33665D02*
X118618Y-33665D01*
X118487Y-33815D01*
X118543Y-33815D01*
X118581Y-33834D01*
X118600Y-33853D01*
X118618Y-33890D01*
X118618Y-33984D01*
X118600Y-34021D01*
X118581Y-34040D01*
X118543Y-34059D01*
X118431Y-34059D01*
X118393Y-34040D01*
X118375Y-34021D01*
X118993Y-34059D02*
X118768Y-34059D01*
X118881Y-34059D02*
X118881Y-33665D01*
X118843Y-33721D01*
X118806Y-33759D01*
X118768Y-33778D01*
X119331Y-33796D02*
X119331Y-34059D01*
X119237Y-33646D02*
X119143Y-33928D01*
X119387Y-33928D01*
X119706Y-33796D02*
X119706Y-34059D01*
X119612Y-33646D02*
X119518Y-33928D01*
X119762Y-33928D01*
X115522Y-30759D02*
X115522Y-30365D01*
X115653Y-30646D01*
X115784Y-30365D01*
X115784Y-30759D01*
X115972Y-30759D02*
X115972Y-30365D01*
X116121Y-30365D01*
X116159Y-30384D01*
X116178Y-30403D01*
X116196Y-30440D01*
X116196Y-30496D01*
X116178Y-30534D01*
X116159Y-30553D01*
X116121Y-30571D01*
X115972Y-30571D01*
X116365Y-30365D02*
X116365Y-30684D01*
X116384Y-30721D01*
X116403Y-30740D01*
X116440Y-30759D01*
X116515Y-30759D01*
X116553Y-30740D01*
X116571Y-30721D01*
X116590Y-30684D01*
X116590Y-30365D01*
X116778Y-30609D02*
X117078Y-30609D01*
X117434Y-30365D02*
X117359Y-30365D01*
X117321Y-30384D01*
X117303Y-30403D01*
X117265Y-30459D01*
X117246Y-30534D01*
X117246Y-30684D01*
X117265Y-30721D01*
X117284Y-30740D01*
X117321Y-30759D01*
X117396Y-30759D01*
X117434Y-30740D01*
X117453Y-30721D01*
X117471Y-30684D01*
X117471Y-30590D01*
X117453Y-30553D01*
X117434Y-30534D01*
X117396Y-30515D01*
X117321Y-30515D01*
X117284Y-30534D01*
X117265Y-30553D01*
X117246Y-30590D01*
X117715Y-30365D02*
X117753Y-30365D01*
X117790Y-30384D01*
X117809Y-30403D01*
X117828Y-30440D01*
X117846Y-30515D01*
X117846Y-30609D01*
X117828Y-30684D01*
X117809Y-30721D01*
X117790Y-30740D01*
X117753Y-30759D01*
X117715Y-30759D01*
X117678Y-30740D01*
X117659Y-30721D01*
X117640Y-30684D01*
X117621Y-30609D01*
X117621Y-30515D01*
X117640Y-30440D01*
X117659Y-30403D01*
X117678Y-30384D01*
X117715Y-30365D01*
X118202Y-30365D02*
X118015Y-30365D01*
X117996Y-30553D01*
X118015Y-30534D01*
X118052Y-30515D01*
X118146Y-30515D01*
X118184Y-30534D01*
X118202Y-30553D01*
X118221Y-30590D01*
X118221Y-30684D01*
X118202Y-30721D01*
X118184Y-30740D01*
X118146Y-30759D01*
X118052Y-30759D01*
X118015Y-30740D01*
X117996Y-30721D01*
X118465Y-30365D02*
X118502Y-30365D01*
X118540Y-30384D01*
X118559Y-30403D01*
X118577Y-30440D01*
X118596Y-30515D01*
X118596Y-30609D01*
X118577Y-30684D01*
X118559Y-30721D01*
X118540Y-30740D01*
X118502Y-30759D01*
X118465Y-30759D01*
X118427Y-30740D01*
X118409Y-30721D01*
X118390Y-30684D01*
X118371Y-30609D01*
X118371Y-30515D01*
X118390Y-30440D01*
X118409Y-30403D01*
X118427Y-30384D01*
X118465Y-30365D01*
G54D12*
X112702Y-32416D02*
X112464Y-32549D01*
X112702Y-32645D02*
X112202Y-32645D01*
X112202Y-32492D01*
X112226Y-32454D01*
X112250Y-32435D01*
X112297Y-32416D01*
X112369Y-32416D01*
X112416Y-32435D01*
X112440Y-32454D01*
X112464Y-32492D01*
X112464Y-32645D01*
X112250Y-32264D02*
X112226Y-32245D01*
X112202Y-32207D01*
X112202Y-32111D01*
X112226Y-32073D01*
X112250Y-32054D01*
X112297Y-32035D01*
X112345Y-32035D01*
X112416Y-32054D01*
X112702Y-32283D01*
X112702Y-32035D01*
X117533Y-40802D02*
X117400Y-40564D01*
X117304Y-40802D02*
X117304Y-40302D01*
X117457Y-40302D01*
X117495Y-40326D01*
X117514Y-40350D01*
X117533Y-40397D01*
X117533Y-40469D01*
X117514Y-40516D01*
X117495Y-40540D01*
X117457Y-40564D01*
X117304Y-40564D01*
X117914Y-40802D02*
X117685Y-40802D01*
X117800Y-40802D02*
X117800Y-40302D01*
X117761Y-40373D01*
X117723Y-40421D01*
X117685Y-40445D01*
G54D10*
X125384Y-36087D02*
X125384Y-36274D01*
X124990Y-36274D01*
X125384Y-35955D02*
X124990Y-35955D01*
X125384Y-35768D02*
X124990Y-35768D01*
X124990Y-35618D01*
X125009Y-35580D01*
X125028Y-35562D01*
X125065Y-35543D01*
X125121Y-35543D01*
X125159Y-35562D01*
X125178Y-35580D01*
X125196Y-35618D01*
X125196Y-35768D01*
X124990Y-35299D02*
X124990Y-35224D01*
X125009Y-35187D01*
X125046Y-35149D01*
X125121Y-35130D01*
X125253Y-35130D01*
X125328Y-35149D01*
X125365Y-35187D01*
X125384Y-35224D01*
X125384Y-35299D01*
X125365Y-35337D01*
X125328Y-35374D01*
X125253Y-35393D01*
X125121Y-35393D01*
X125046Y-35374D01*
X125009Y-35337D01*
X124990Y-35299D01*
X125421Y-35055D02*
X125421Y-34755D01*
X125346Y-34437D02*
X125365Y-34456D01*
X125384Y-34512D01*
X125384Y-34549D01*
X125365Y-34606D01*
X125328Y-34643D01*
X125290Y-34662D01*
X125215Y-34681D01*
X125159Y-34681D01*
X125084Y-34662D01*
X125046Y-34643D01*
X125009Y-34606D01*
X124990Y-34549D01*
X124990Y-34512D01*
X125009Y-34456D01*
X125028Y-34437D01*
X125384Y-34268D02*
X124990Y-34268D01*
X125178Y-34268D02*
X125178Y-34043D01*
X125384Y-34043D02*
X124990Y-34043D01*
X125271Y-33874D02*
X125271Y-33687D01*
X125384Y-33912D02*
X124990Y-33781D01*
X125384Y-33649D01*
X125384Y-33293D02*
X125196Y-33424D01*
X125384Y-33518D02*
X124990Y-33518D01*
X124990Y-33368D01*
X125009Y-33331D01*
X125028Y-33312D01*
X125065Y-33293D01*
X125121Y-33293D01*
X125159Y-33312D01*
X125178Y-33331D01*
X125196Y-33368D01*
X125196Y-33518D01*
X125009Y-32918D02*
X124990Y-32956D01*
X124990Y-33012D01*
X125009Y-33068D01*
X125046Y-33106D01*
X125084Y-33124D01*
X125159Y-33143D01*
X125215Y-33143D01*
X125290Y-33124D01*
X125328Y-33106D01*
X125365Y-33068D01*
X125384Y-33012D01*
X125384Y-32974D01*
X125365Y-32918D01*
X125346Y-32899D01*
X125215Y-32899D01*
X125215Y-32974D01*
X125178Y-32731D02*
X125178Y-32600D01*
X125384Y-32543D02*
X125384Y-32731D01*
X124990Y-32731D01*
X124990Y-32543D01*
X125384Y-32150D02*
X125196Y-32281D01*
X125384Y-32375D02*
X124990Y-32375D01*
X124990Y-32225D01*
X125009Y-32187D01*
X125028Y-32168D01*
X125065Y-32150D01*
X125121Y-32150D01*
X125159Y-32168D01*
X125178Y-32187D01*
X125196Y-32225D01*
X125196Y-32375D01*
X125421Y-32075D02*
X125421Y-31775D01*
X125178Y-31550D02*
X125196Y-31493D01*
X125215Y-31475D01*
X125253Y-31456D01*
X125309Y-31456D01*
X125346Y-31475D01*
X125365Y-31493D01*
X125384Y-31531D01*
X125384Y-31681D01*
X124990Y-31681D01*
X124990Y-31550D01*
X125009Y-31512D01*
X125028Y-31493D01*
X125065Y-31475D01*
X125103Y-31475D01*
X125140Y-31493D01*
X125159Y-31512D01*
X125178Y-31550D01*
X125178Y-31681D01*
X124990Y-31212D02*
X124990Y-31137D01*
X125009Y-31100D01*
X125046Y-31062D01*
X125121Y-31043D01*
X125253Y-31043D01*
X125328Y-31062D01*
X125365Y-31100D01*
X125384Y-31137D01*
X125384Y-31212D01*
X125365Y-31250D01*
X125328Y-31287D01*
X125253Y-31306D01*
X125121Y-31306D01*
X125046Y-31287D01*
X125009Y-31250D01*
X124990Y-31212D01*
X124990Y-30800D02*
X124990Y-30725D01*
X125009Y-30687D01*
X125046Y-30650D01*
X125121Y-30631D01*
X125253Y-30631D01*
X125328Y-30650D01*
X125365Y-30687D01*
X125384Y-30725D01*
X125384Y-30800D01*
X125365Y-30837D01*
X125328Y-30875D01*
X125253Y-30893D01*
X125121Y-30893D01*
X125046Y-30875D01*
X125009Y-30837D01*
X124990Y-30800D01*
X125365Y-30481D02*
X125384Y-30425D01*
X125384Y-30331D01*
X125365Y-30294D01*
X125346Y-30275D01*
X125309Y-30256D01*
X125271Y-30256D01*
X125234Y-30275D01*
X125215Y-30294D01*
X125196Y-30331D01*
X125178Y-30406D01*
X125159Y-30444D01*
X125140Y-30462D01*
X125103Y-30481D01*
X125065Y-30481D01*
X125028Y-30462D01*
X125009Y-30444D01*
X124990Y-30406D01*
X124990Y-30312D01*
X125009Y-30256D01*
X124990Y-30144D02*
X124990Y-29919D01*
X125384Y-30031D02*
X124990Y-30031D01*
X125178Y-29787D02*
X125178Y-29656D01*
X125384Y-29600D02*
X125384Y-29787D01*
X124990Y-29787D01*
X124990Y-29600D01*
X125384Y-29206D02*
X125196Y-29337D01*
X125384Y-29431D02*
X124990Y-29431D01*
X124990Y-29281D01*
X125009Y-29244D01*
X125028Y-29225D01*
X125065Y-29206D01*
X125121Y-29206D01*
X125159Y-29225D01*
X125178Y-29244D01*
X125196Y-29281D01*
X125196Y-29431D01*
M02*
