M48
METRIC,TZ
T1C0.635
T2C0.813
T3C1.000
T4C1.200
T5C1.400
T6C3.000
%
G90
G05
T1
X289560Y-86106
X296418Y-50165
T2
X285750Y-77724
X285750Y-86614
X294259Y-103124
X303149Y-103124
T3
X284480Y-47117
X284480Y-51689
X285750Y-56134
X285750Y-71374
X288163Y-96012
X288290Y-56134
X288290Y-71374
X290830Y-56134
X290830Y-71374
X293243Y-75184
X293370Y-56134
X293370Y-71374
X295783Y-75184
X295783Y-96012
X295910Y-56134
X295910Y-71374
X298323Y-75184
X298450Y-56134
X298450Y-71374
X299466Y-93599
X300863Y-75184
X300990Y-56134
X300990Y-71374
X302006Y-93599
X303530Y-56134
X303530Y-71374
X304546Y-93599
X306070Y-56134
X306070Y-71374
X308229Y-103251
X308610Y-56134
X308610Y-71374
X310769Y-103251
X311150Y-56134
X311150Y-71374
X312928Y-97536
X313309Y-103251
X313690Y-56134
X313690Y-71374
X314960Y-97536
X319913Y-47117
X319913Y-51689
X320548Y-66802
X320548Y-69342
X320548Y-71882
X320548Y-74422
T4
X303975Y-84455
X307086Y-90742
X312102Y-80709
X312102Y-87122
T5
X286893Y-53213
X287020Y-45720
X317373Y-53086
X317500Y-45593
T6
X284734Y-102489
X292100Y-49403
X312293Y-49403
X319659Y-102489
T0
M30
