G04 (created by PCBNEW (22-Jun-2014 BZR 4027)-stable) date Mon 17 Oct 2016 14:56:04 BST*
%MOIN*%
G04 Gerber Fmt 3.4, Leading zero omitted, Abs format*
%FSLAX34Y34*%
G01*
G70*
G90*
G04 APERTURE LIST*
%ADD10C,0.00590551*%
%ADD11C,0.055*%
%ADD12C,0.0629921*%
%ADD13C,0.0787402*%
%ADD14C,0.137795*%
%ADD15C,0.035*%
%ADD16C,0.01*%
G04 APERTURE END LIST*
G54D10*
G54D11*
X112500Y-34100D03*
X112500Y-30600D03*
G54D12*
X123500Y-28100D03*
X122500Y-28100D03*
X123500Y-22100D03*
X121500Y-28100D03*
X120500Y-28100D03*
X119500Y-28100D03*
X118500Y-28100D03*
X117500Y-28100D03*
X116500Y-28100D03*
X115500Y-28100D03*
X114500Y-28100D03*
X113500Y-28100D03*
X112500Y-28100D03*
X122500Y-22100D03*
X121500Y-22100D03*
X120500Y-22100D03*
X119500Y-22100D03*
X118500Y-22100D03*
X117500Y-22100D03*
X116500Y-22100D03*
X115500Y-22100D03*
X114500Y-22100D03*
X113500Y-22100D03*
X112500Y-22100D03*
X123100Y-31800D03*
X126100Y-31800D03*
X111600Y-36150D03*
X111600Y-37150D03*
X111600Y-38150D03*
X122750Y-35550D03*
X122750Y-36550D03*
X122750Y-37550D03*
X125950Y-18550D03*
X125950Y-20350D03*
G54D13*
X124950Y-20900D03*
X125000Y-17950D03*
G54D12*
X112000Y-20350D03*
X112000Y-18550D03*
G54D13*
X113000Y-18000D03*
X112950Y-20950D03*
G54D12*
X118000Y-40750D03*
X119000Y-40750D03*
X120000Y-40750D03*
X119900Y-36850D03*
X118900Y-36850D03*
X117900Y-36850D03*
G54D14*
X122950Y-19450D03*
X115000Y-19450D03*
X125850Y-40350D03*
X112100Y-40350D03*
G54D12*
X126200Y-27300D03*
X126200Y-28300D03*
X126200Y-29300D03*
X126200Y-26300D03*
X119400Y-38500D03*
X118600Y-38500D03*
X115450Y-29600D03*
X116450Y-29600D03*
X117450Y-29600D03*
X118450Y-29600D03*
G54D11*
X120800Y-33000D03*
X120800Y-29500D03*
G54D15*
X116700Y-19750D03*
X114000Y-33900D03*
G54D10*
G36*
X126980Y-40721D02*
X126919Y-41028D01*
X126789Y-41223D01*
X126789Y-40164D01*
X126769Y-40116D01*
X126769Y-28385D01*
X126765Y-28288D01*
X126765Y-27188D01*
X126679Y-26980D01*
X126520Y-26821D01*
X126469Y-26800D01*
X126519Y-26779D01*
X126678Y-26620D01*
X126764Y-26412D01*
X126765Y-26188D01*
X126679Y-25980D01*
X126520Y-25821D01*
X126519Y-25821D01*
X126519Y-20435D01*
X126515Y-20338D01*
X126515Y-18438D01*
X126429Y-18230D01*
X126270Y-18071D01*
X126062Y-17985D01*
X125838Y-17984D01*
X125643Y-18065D01*
X125643Y-17822D01*
X125546Y-17585D01*
X125365Y-17404D01*
X125128Y-17306D01*
X124872Y-17306D01*
X124635Y-17403D01*
X124454Y-17584D01*
X124356Y-17821D01*
X124356Y-18077D01*
X124453Y-18314D01*
X124634Y-18495D01*
X124871Y-18593D01*
X125127Y-18593D01*
X125364Y-18496D01*
X125385Y-18475D01*
X125384Y-18661D01*
X125470Y-18869D01*
X125629Y-19028D01*
X125837Y-19114D01*
X126061Y-19115D01*
X126269Y-19029D01*
X126428Y-18870D01*
X126514Y-18662D01*
X126515Y-18438D01*
X126515Y-20338D01*
X126508Y-20210D01*
X126443Y-20053D01*
X126346Y-20023D01*
X126276Y-20094D01*
X126276Y-19953D01*
X126246Y-19856D01*
X126035Y-19780D01*
X125810Y-19791D01*
X125653Y-19856D01*
X125623Y-19953D01*
X125950Y-20279D01*
X126276Y-19953D01*
X126276Y-20094D01*
X126020Y-20350D01*
X126346Y-20676D01*
X126443Y-20646D01*
X126519Y-20435D01*
X126519Y-25821D01*
X126312Y-25735D01*
X126276Y-25735D01*
X126276Y-20746D01*
X125950Y-20420D01*
X125944Y-20426D01*
X125879Y-20361D01*
X125873Y-20355D01*
X125879Y-20350D01*
X125553Y-20023D01*
X125456Y-20053D01*
X125380Y-20264D01*
X125388Y-20427D01*
X125315Y-20354D01*
X125078Y-20256D01*
X124822Y-20256D01*
X124585Y-20353D01*
X124404Y-20534D01*
X124306Y-20771D01*
X124306Y-21027D01*
X124403Y-21264D01*
X124584Y-21445D01*
X124821Y-21543D01*
X125077Y-21543D01*
X125314Y-21446D01*
X125495Y-21265D01*
X125593Y-21028D01*
X125593Y-20776D01*
X125623Y-20746D01*
X125653Y-20843D01*
X125864Y-20919D01*
X126089Y-20908D01*
X126246Y-20843D01*
X126276Y-20746D01*
X126276Y-25735D01*
X126088Y-25734D01*
X125880Y-25820D01*
X125721Y-25979D01*
X125635Y-26187D01*
X125634Y-26411D01*
X125720Y-26619D01*
X125879Y-26778D01*
X125930Y-26799D01*
X125880Y-26820D01*
X125721Y-26979D01*
X125635Y-27187D01*
X125634Y-27411D01*
X125720Y-27619D01*
X125879Y-27778D01*
X125924Y-27797D01*
X125903Y-27806D01*
X125873Y-27903D01*
X126200Y-28229D01*
X126526Y-27903D01*
X126496Y-27806D01*
X126473Y-27798D01*
X126519Y-27779D01*
X126678Y-27620D01*
X126764Y-27412D01*
X126765Y-27188D01*
X126765Y-28288D01*
X126758Y-28160D01*
X126693Y-28003D01*
X126596Y-27973D01*
X126270Y-28300D01*
X126596Y-28626D01*
X126693Y-28596D01*
X126769Y-28385D01*
X126769Y-40116D01*
X126765Y-40105D01*
X126765Y-29188D01*
X126679Y-28980D01*
X126520Y-28821D01*
X126475Y-28802D01*
X126496Y-28793D01*
X126526Y-28696D01*
X126200Y-28370D01*
X126129Y-28441D01*
X126129Y-28300D01*
X125803Y-27973D01*
X125706Y-28003D01*
X125630Y-28214D01*
X125641Y-28439D01*
X125706Y-28596D01*
X125803Y-28626D01*
X126129Y-28300D01*
X126129Y-28441D01*
X125873Y-28696D01*
X125903Y-28793D01*
X125926Y-28801D01*
X125880Y-28820D01*
X125721Y-28979D01*
X125635Y-29187D01*
X125634Y-29411D01*
X125720Y-29619D01*
X125879Y-29778D01*
X126087Y-29864D01*
X126311Y-29865D01*
X126519Y-29779D01*
X126678Y-29620D01*
X126764Y-29412D01*
X126765Y-29188D01*
X126765Y-40105D01*
X126665Y-39863D01*
X126665Y-31688D01*
X126579Y-31480D01*
X126420Y-31321D01*
X126212Y-31235D01*
X125988Y-31234D01*
X125780Y-31320D01*
X125621Y-31479D01*
X125535Y-31687D01*
X125534Y-31911D01*
X125620Y-32119D01*
X125779Y-32278D01*
X125987Y-32364D01*
X126211Y-32365D01*
X126419Y-32279D01*
X126578Y-32120D01*
X126664Y-31912D01*
X126665Y-31688D01*
X126665Y-39863D01*
X126646Y-39818D01*
X126382Y-39554D01*
X126037Y-39411D01*
X125664Y-39410D01*
X125318Y-39553D01*
X125054Y-39817D01*
X124911Y-40162D01*
X124910Y-40535D01*
X125053Y-40881D01*
X125317Y-41145D01*
X125662Y-41288D01*
X126035Y-41289D01*
X126381Y-41146D01*
X126645Y-40882D01*
X126788Y-40537D01*
X126789Y-40164D01*
X126789Y-41223D01*
X126763Y-41261D01*
X126526Y-41420D01*
X126223Y-41480D01*
X124065Y-41480D01*
X124065Y-27988D01*
X124065Y-21988D01*
X123979Y-21780D01*
X123889Y-21690D01*
X123889Y-19264D01*
X123746Y-18918D01*
X123482Y-18654D01*
X123137Y-18511D01*
X122764Y-18510D01*
X122418Y-18653D01*
X122154Y-18917D01*
X122011Y-19262D01*
X122010Y-19635D01*
X122153Y-19981D01*
X122417Y-20245D01*
X122762Y-20388D01*
X123135Y-20389D01*
X123481Y-20246D01*
X123745Y-19982D01*
X123888Y-19637D01*
X123889Y-19264D01*
X123889Y-21690D01*
X123820Y-21621D01*
X123612Y-21535D01*
X123388Y-21534D01*
X123180Y-21620D01*
X123021Y-21779D01*
X123000Y-21830D01*
X122979Y-21780D01*
X122820Y-21621D01*
X122612Y-21535D01*
X122388Y-21534D01*
X122180Y-21620D01*
X122021Y-21779D01*
X122000Y-21830D01*
X121979Y-21780D01*
X121820Y-21621D01*
X121612Y-21535D01*
X121388Y-21534D01*
X121180Y-21620D01*
X121021Y-21779D01*
X121000Y-21830D01*
X120979Y-21780D01*
X120820Y-21621D01*
X120612Y-21535D01*
X120388Y-21534D01*
X120180Y-21620D01*
X120021Y-21779D01*
X120000Y-21830D01*
X119979Y-21780D01*
X119820Y-21621D01*
X119612Y-21535D01*
X119388Y-21534D01*
X119180Y-21620D01*
X119021Y-21779D01*
X119000Y-21830D01*
X118979Y-21780D01*
X118820Y-21621D01*
X118612Y-21535D01*
X118388Y-21534D01*
X118180Y-21620D01*
X118021Y-21779D01*
X118000Y-21830D01*
X117979Y-21780D01*
X117820Y-21621D01*
X117612Y-21535D01*
X117388Y-21534D01*
X117180Y-21620D01*
X117021Y-21779D01*
X117000Y-21830D01*
X116979Y-21780D01*
X116820Y-21621D01*
X116612Y-21535D01*
X116388Y-21534D01*
X116180Y-21620D01*
X116021Y-21779D01*
X116000Y-21830D01*
X115979Y-21780D01*
X115939Y-21740D01*
X115939Y-19264D01*
X115796Y-18918D01*
X115532Y-18654D01*
X115187Y-18511D01*
X114814Y-18510D01*
X114468Y-18653D01*
X114204Y-18917D01*
X114061Y-19262D01*
X114060Y-19635D01*
X114203Y-19981D01*
X114467Y-20245D01*
X114812Y-20388D01*
X115185Y-20389D01*
X115531Y-20246D01*
X115795Y-19982D01*
X115938Y-19637D01*
X115939Y-19264D01*
X115939Y-21740D01*
X115820Y-21621D01*
X115612Y-21535D01*
X115388Y-21534D01*
X115180Y-21620D01*
X115021Y-21779D01*
X115000Y-21830D01*
X114979Y-21780D01*
X114820Y-21621D01*
X114612Y-21535D01*
X114388Y-21534D01*
X114180Y-21620D01*
X114021Y-21779D01*
X114002Y-21824D01*
X113993Y-21803D01*
X113896Y-21773D01*
X113826Y-21844D01*
X113826Y-21703D01*
X113796Y-21606D01*
X113643Y-21551D01*
X113643Y-17872D01*
X113546Y-17635D01*
X113365Y-17454D01*
X113128Y-17356D01*
X112872Y-17356D01*
X112635Y-17453D01*
X112454Y-17634D01*
X112356Y-17871D01*
X112356Y-18123D01*
X112326Y-18153D01*
X112296Y-18056D01*
X112085Y-17980D01*
X111860Y-17991D01*
X111703Y-18056D01*
X111673Y-18153D01*
X112000Y-18479D01*
X112005Y-18473D01*
X112076Y-18544D01*
X112070Y-18550D01*
X112396Y-18876D01*
X112493Y-18846D01*
X112569Y-18635D01*
X112561Y-18472D01*
X112634Y-18545D01*
X112871Y-18643D01*
X113127Y-18643D01*
X113364Y-18546D01*
X113545Y-18365D01*
X113643Y-18128D01*
X113643Y-17872D01*
X113643Y-21551D01*
X113593Y-21533D01*
X113593Y-20822D01*
X113496Y-20585D01*
X113315Y-20404D01*
X113078Y-20306D01*
X112822Y-20306D01*
X112585Y-20403D01*
X112564Y-20424D01*
X112565Y-20238D01*
X112479Y-20030D01*
X112326Y-19876D01*
X112326Y-18946D01*
X112000Y-18620D01*
X111929Y-18691D01*
X111929Y-18550D01*
X111603Y-18223D01*
X111506Y-18253D01*
X111430Y-18464D01*
X111441Y-18689D01*
X111506Y-18846D01*
X111603Y-18876D01*
X111929Y-18550D01*
X111929Y-18691D01*
X111673Y-18946D01*
X111703Y-19043D01*
X111914Y-19119D01*
X112139Y-19108D01*
X112296Y-19043D01*
X112326Y-18946D01*
X112326Y-19876D01*
X112320Y-19871D01*
X112112Y-19785D01*
X111888Y-19784D01*
X111680Y-19870D01*
X111521Y-20029D01*
X111435Y-20237D01*
X111434Y-20461D01*
X111520Y-20669D01*
X111679Y-20828D01*
X111887Y-20914D01*
X112111Y-20915D01*
X112306Y-20834D01*
X112306Y-21077D01*
X112403Y-21314D01*
X112584Y-21495D01*
X112821Y-21593D01*
X113077Y-21593D01*
X113314Y-21496D01*
X113495Y-21315D01*
X113593Y-21078D01*
X113593Y-20822D01*
X113593Y-21533D01*
X113585Y-21530D01*
X113360Y-21541D01*
X113203Y-21606D01*
X113173Y-21703D01*
X113500Y-22029D01*
X113826Y-21703D01*
X113826Y-21844D01*
X113570Y-22100D01*
X113896Y-22426D01*
X113993Y-22396D01*
X114001Y-22373D01*
X114020Y-22419D01*
X114179Y-22578D01*
X114387Y-22664D01*
X114611Y-22665D01*
X114819Y-22579D01*
X114978Y-22420D01*
X114999Y-22369D01*
X115020Y-22419D01*
X115179Y-22578D01*
X115387Y-22664D01*
X115611Y-22665D01*
X115819Y-22579D01*
X115978Y-22420D01*
X115999Y-22369D01*
X116020Y-22419D01*
X116179Y-22578D01*
X116387Y-22664D01*
X116611Y-22665D01*
X116819Y-22579D01*
X116978Y-22420D01*
X116999Y-22369D01*
X117020Y-22419D01*
X117179Y-22578D01*
X117387Y-22664D01*
X117611Y-22665D01*
X117819Y-22579D01*
X117978Y-22420D01*
X117999Y-22369D01*
X118020Y-22419D01*
X118179Y-22578D01*
X118387Y-22664D01*
X118611Y-22665D01*
X118819Y-22579D01*
X118978Y-22420D01*
X118999Y-22369D01*
X119020Y-22419D01*
X119179Y-22578D01*
X119387Y-22664D01*
X119611Y-22665D01*
X119819Y-22579D01*
X119978Y-22420D01*
X119999Y-22369D01*
X120020Y-22419D01*
X120179Y-22578D01*
X120387Y-22664D01*
X120611Y-22665D01*
X120819Y-22579D01*
X120978Y-22420D01*
X120999Y-22369D01*
X121020Y-22419D01*
X121179Y-22578D01*
X121387Y-22664D01*
X121611Y-22665D01*
X121819Y-22579D01*
X121978Y-22420D01*
X121999Y-22369D01*
X122020Y-22419D01*
X122179Y-22578D01*
X122387Y-22664D01*
X122611Y-22665D01*
X122819Y-22579D01*
X122978Y-22420D01*
X122999Y-22369D01*
X123020Y-22419D01*
X123179Y-22578D01*
X123387Y-22664D01*
X123611Y-22665D01*
X123819Y-22579D01*
X123978Y-22420D01*
X124064Y-22212D01*
X124065Y-21988D01*
X124065Y-27988D01*
X123979Y-27780D01*
X123820Y-27621D01*
X123612Y-27535D01*
X123388Y-27534D01*
X123180Y-27620D01*
X123021Y-27779D01*
X123000Y-27830D01*
X122979Y-27780D01*
X122820Y-27621D01*
X122612Y-27535D01*
X122388Y-27534D01*
X122180Y-27620D01*
X122021Y-27779D01*
X122000Y-27830D01*
X121979Y-27780D01*
X121820Y-27621D01*
X121612Y-27535D01*
X121388Y-27534D01*
X121180Y-27620D01*
X121021Y-27779D01*
X121000Y-27830D01*
X120979Y-27780D01*
X120820Y-27621D01*
X120612Y-27535D01*
X120388Y-27534D01*
X120180Y-27620D01*
X120021Y-27779D01*
X120000Y-27830D01*
X119979Y-27780D01*
X119820Y-27621D01*
X119612Y-27535D01*
X119388Y-27534D01*
X119180Y-27620D01*
X119021Y-27779D01*
X119000Y-27830D01*
X118979Y-27780D01*
X118820Y-27621D01*
X118612Y-27535D01*
X118388Y-27534D01*
X118180Y-27620D01*
X118021Y-27779D01*
X118000Y-27830D01*
X117979Y-27780D01*
X117820Y-27621D01*
X117612Y-27535D01*
X117388Y-27534D01*
X117180Y-27620D01*
X117021Y-27779D01*
X117000Y-27830D01*
X116979Y-27780D01*
X116820Y-27621D01*
X116612Y-27535D01*
X116388Y-27534D01*
X116180Y-27620D01*
X116021Y-27779D01*
X116000Y-27830D01*
X115979Y-27780D01*
X115820Y-27621D01*
X115612Y-27535D01*
X115388Y-27534D01*
X115180Y-27620D01*
X115021Y-27779D01*
X115000Y-27830D01*
X114979Y-27780D01*
X114820Y-27621D01*
X114612Y-27535D01*
X114388Y-27534D01*
X114180Y-27620D01*
X114021Y-27779D01*
X114000Y-27830D01*
X113979Y-27780D01*
X113826Y-27626D01*
X113826Y-22496D01*
X113500Y-22170D01*
X113429Y-22241D01*
X113429Y-22100D01*
X113103Y-21773D01*
X113006Y-21803D01*
X112998Y-21826D01*
X112979Y-21780D01*
X112820Y-21621D01*
X112612Y-21535D01*
X112388Y-21534D01*
X112180Y-21620D01*
X112021Y-21779D01*
X111935Y-21987D01*
X111934Y-22211D01*
X112020Y-22419D01*
X112179Y-22578D01*
X112387Y-22664D01*
X112611Y-22665D01*
X112819Y-22579D01*
X112978Y-22420D01*
X112997Y-22375D01*
X113006Y-22396D01*
X113103Y-22426D01*
X113429Y-22100D01*
X113429Y-22241D01*
X113173Y-22496D01*
X113203Y-22593D01*
X113414Y-22669D01*
X113639Y-22658D01*
X113796Y-22593D01*
X113826Y-22496D01*
X113826Y-27626D01*
X113820Y-27621D01*
X113612Y-27535D01*
X113388Y-27534D01*
X113180Y-27620D01*
X113021Y-27779D01*
X113000Y-27830D01*
X112979Y-27780D01*
X112820Y-27621D01*
X112612Y-27535D01*
X112388Y-27534D01*
X112180Y-27620D01*
X112021Y-27779D01*
X111935Y-27987D01*
X111934Y-28211D01*
X112020Y-28419D01*
X112179Y-28578D01*
X112387Y-28664D01*
X112611Y-28665D01*
X112819Y-28579D01*
X112978Y-28420D01*
X112999Y-28369D01*
X113020Y-28419D01*
X113179Y-28578D01*
X113387Y-28664D01*
X113611Y-28665D01*
X113819Y-28579D01*
X113978Y-28420D01*
X113999Y-28369D01*
X114020Y-28419D01*
X114179Y-28578D01*
X114387Y-28664D01*
X114611Y-28665D01*
X114819Y-28579D01*
X114978Y-28420D01*
X114999Y-28369D01*
X115020Y-28419D01*
X115179Y-28578D01*
X115387Y-28664D01*
X115611Y-28665D01*
X115819Y-28579D01*
X115978Y-28420D01*
X115999Y-28369D01*
X116020Y-28419D01*
X116179Y-28578D01*
X116387Y-28664D01*
X116611Y-28665D01*
X116819Y-28579D01*
X116978Y-28420D01*
X116999Y-28369D01*
X117020Y-28419D01*
X117179Y-28578D01*
X117387Y-28664D01*
X117611Y-28665D01*
X117819Y-28579D01*
X117978Y-28420D01*
X117999Y-28369D01*
X118020Y-28419D01*
X118179Y-28578D01*
X118387Y-28664D01*
X118611Y-28665D01*
X118819Y-28579D01*
X118978Y-28420D01*
X118999Y-28369D01*
X119020Y-28419D01*
X119179Y-28578D01*
X119387Y-28664D01*
X119611Y-28665D01*
X119819Y-28579D01*
X119978Y-28420D01*
X119999Y-28369D01*
X120020Y-28419D01*
X120179Y-28578D01*
X120387Y-28664D01*
X120611Y-28665D01*
X120819Y-28579D01*
X120978Y-28420D01*
X120999Y-28369D01*
X121020Y-28419D01*
X121179Y-28578D01*
X121387Y-28664D01*
X121611Y-28665D01*
X121819Y-28579D01*
X121978Y-28420D01*
X121999Y-28369D01*
X122020Y-28419D01*
X122179Y-28578D01*
X122387Y-28664D01*
X122611Y-28665D01*
X122819Y-28579D01*
X122978Y-28420D01*
X122999Y-28369D01*
X123020Y-28419D01*
X123179Y-28578D01*
X123387Y-28664D01*
X123611Y-28665D01*
X123819Y-28579D01*
X123978Y-28420D01*
X124064Y-28212D01*
X124065Y-27988D01*
X124065Y-41480D01*
X123665Y-41480D01*
X123665Y-31688D01*
X123579Y-31480D01*
X123420Y-31321D01*
X123212Y-31235D01*
X122988Y-31234D01*
X122780Y-31320D01*
X122621Y-31479D01*
X122535Y-31687D01*
X122534Y-31911D01*
X122620Y-32119D01*
X122779Y-32278D01*
X122987Y-32364D01*
X123211Y-32365D01*
X123419Y-32279D01*
X123578Y-32120D01*
X123664Y-31912D01*
X123665Y-31688D01*
X123665Y-41480D01*
X123319Y-41480D01*
X123319Y-36635D01*
X123315Y-36538D01*
X123315Y-35438D01*
X123229Y-35230D01*
X123070Y-35071D01*
X122862Y-34985D01*
X122638Y-34984D01*
X122430Y-35070D01*
X122271Y-35229D01*
X122185Y-35437D01*
X122184Y-35661D01*
X122270Y-35869D01*
X122429Y-36028D01*
X122474Y-36047D01*
X122453Y-36056D01*
X122423Y-36153D01*
X122750Y-36479D01*
X123076Y-36153D01*
X123046Y-36056D01*
X123023Y-36048D01*
X123069Y-36029D01*
X123228Y-35870D01*
X123314Y-35662D01*
X123315Y-35438D01*
X123315Y-36538D01*
X123308Y-36410D01*
X123243Y-36253D01*
X123146Y-36223D01*
X122820Y-36550D01*
X123146Y-36876D01*
X123243Y-36846D01*
X123319Y-36635D01*
X123319Y-41480D01*
X123315Y-41480D01*
X123315Y-37438D01*
X123229Y-37230D01*
X123070Y-37071D01*
X123025Y-37052D01*
X123046Y-37043D01*
X123076Y-36946D01*
X122750Y-36620D01*
X122679Y-36691D01*
X122679Y-36550D01*
X122353Y-36223D01*
X122256Y-36253D01*
X122180Y-36464D01*
X122191Y-36689D01*
X122256Y-36846D01*
X122353Y-36876D01*
X122679Y-36550D01*
X122679Y-36691D01*
X122423Y-36946D01*
X122453Y-37043D01*
X122476Y-37051D01*
X122430Y-37070D01*
X122271Y-37229D01*
X122185Y-37437D01*
X122184Y-37661D01*
X122270Y-37869D01*
X122429Y-38028D01*
X122637Y-38114D01*
X122861Y-38115D01*
X123069Y-38029D01*
X123228Y-37870D01*
X123314Y-37662D01*
X123315Y-37438D01*
X123315Y-41480D01*
X121329Y-41480D01*
X121329Y-33075D01*
X121325Y-32987D01*
X121325Y-29396D01*
X121245Y-29203D01*
X121097Y-29055D01*
X120904Y-28975D01*
X120696Y-28974D01*
X120503Y-29054D01*
X120355Y-29202D01*
X120275Y-29395D01*
X120274Y-29603D01*
X120354Y-29797D01*
X120502Y-29944D01*
X120695Y-30024D01*
X120903Y-30025D01*
X121097Y-29945D01*
X121244Y-29797D01*
X121324Y-29604D01*
X121325Y-29396D01*
X121325Y-32987D01*
X121318Y-32867D01*
X121260Y-32727D01*
X121167Y-32702D01*
X121097Y-32773D01*
X121097Y-32632D01*
X121072Y-32539D01*
X120875Y-32470D01*
X120667Y-32481D01*
X120527Y-32539D01*
X120502Y-32632D01*
X120800Y-32929D01*
X121097Y-32632D01*
X121097Y-32773D01*
X120870Y-33000D01*
X121167Y-33297D01*
X121260Y-33272D01*
X121329Y-33075D01*
X121329Y-41480D01*
X121097Y-41480D01*
X121097Y-33367D01*
X120800Y-33070D01*
X120729Y-33141D01*
X120729Y-33000D01*
X120432Y-32702D01*
X120339Y-32727D01*
X120270Y-32924D01*
X120281Y-33132D01*
X120339Y-33272D01*
X120432Y-33297D01*
X120729Y-33000D01*
X120729Y-33141D01*
X120502Y-33367D01*
X120527Y-33460D01*
X120724Y-33529D01*
X120932Y-33518D01*
X121072Y-33460D01*
X121097Y-33367D01*
X121097Y-41480D01*
X120565Y-41480D01*
X120565Y-40638D01*
X120479Y-40430D01*
X120465Y-40416D01*
X120465Y-36738D01*
X120379Y-36530D01*
X120220Y-36371D01*
X120012Y-36285D01*
X119788Y-36284D01*
X119580Y-36370D01*
X119421Y-36529D01*
X119402Y-36574D01*
X119393Y-36553D01*
X119296Y-36523D01*
X119226Y-36594D01*
X119226Y-36453D01*
X119196Y-36356D01*
X119015Y-36291D01*
X119015Y-29488D01*
X118929Y-29280D01*
X118770Y-29121D01*
X118562Y-29035D01*
X118338Y-29034D01*
X118130Y-29120D01*
X117971Y-29279D01*
X117952Y-29324D01*
X117943Y-29303D01*
X117846Y-29273D01*
X117776Y-29344D01*
X117776Y-29203D01*
X117746Y-29106D01*
X117535Y-29030D01*
X117310Y-29041D01*
X117153Y-29106D01*
X117123Y-29203D01*
X117450Y-29529D01*
X117776Y-29203D01*
X117776Y-29344D01*
X117520Y-29600D01*
X117846Y-29926D01*
X117943Y-29896D01*
X117951Y-29873D01*
X117970Y-29919D01*
X118129Y-30078D01*
X118337Y-30164D01*
X118561Y-30165D01*
X118769Y-30079D01*
X118928Y-29920D01*
X119014Y-29712D01*
X119015Y-29488D01*
X119015Y-36291D01*
X118985Y-36280D01*
X118760Y-36291D01*
X118603Y-36356D01*
X118573Y-36453D01*
X118900Y-36779D01*
X119226Y-36453D01*
X119226Y-36594D01*
X118970Y-36850D01*
X119296Y-37176D01*
X119393Y-37146D01*
X119401Y-37123D01*
X119420Y-37169D01*
X119579Y-37328D01*
X119787Y-37414D01*
X120011Y-37415D01*
X120219Y-37329D01*
X120378Y-37170D01*
X120464Y-36962D01*
X120465Y-36738D01*
X120465Y-40416D01*
X120320Y-40271D01*
X120112Y-40185D01*
X119969Y-40185D01*
X119969Y-38585D01*
X119958Y-38360D01*
X119893Y-38203D01*
X119796Y-38173D01*
X119726Y-38244D01*
X119726Y-38103D01*
X119696Y-38006D01*
X119485Y-37930D01*
X119260Y-37941D01*
X119226Y-37955D01*
X119226Y-37246D01*
X118900Y-36920D01*
X118829Y-36991D01*
X118829Y-36850D01*
X118503Y-36523D01*
X118406Y-36553D01*
X118398Y-36576D01*
X118379Y-36530D01*
X118220Y-36371D01*
X118012Y-36285D01*
X117788Y-36284D01*
X117776Y-36289D01*
X117776Y-29996D01*
X117450Y-29670D01*
X117379Y-29741D01*
X117379Y-29600D01*
X117053Y-29273D01*
X116956Y-29303D01*
X116948Y-29326D01*
X116929Y-29280D01*
X116770Y-29121D01*
X116562Y-29035D01*
X116338Y-29034D01*
X116130Y-29120D01*
X115971Y-29279D01*
X115950Y-29330D01*
X115929Y-29280D01*
X115770Y-29121D01*
X115562Y-29035D01*
X115338Y-29034D01*
X115130Y-29120D01*
X114971Y-29279D01*
X114885Y-29487D01*
X114884Y-29711D01*
X114970Y-29919D01*
X115129Y-30078D01*
X115337Y-30164D01*
X115561Y-30165D01*
X115769Y-30079D01*
X115928Y-29920D01*
X115949Y-29869D01*
X115970Y-29919D01*
X116129Y-30078D01*
X116337Y-30164D01*
X116561Y-30165D01*
X116769Y-30079D01*
X116928Y-29920D01*
X116947Y-29875D01*
X116956Y-29896D01*
X117053Y-29926D01*
X117379Y-29600D01*
X117379Y-29741D01*
X117123Y-29996D01*
X117153Y-30093D01*
X117364Y-30169D01*
X117589Y-30158D01*
X117746Y-30093D01*
X117776Y-29996D01*
X117776Y-36289D01*
X117580Y-36370D01*
X117421Y-36529D01*
X117335Y-36737D01*
X117334Y-36961D01*
X117420Y-37169D01*
X117579Y-37328D01*
X117787Y-37414D01*
X118011Y-37415D01*
X118219Y-37329D01*
X118378Y-37170D01*
X118397Y-37125D01*
X118406Y-37146D01*
X118503Y-37176D01*
X118829Y-36850D01*
X118829Y-36991D01*
X118573Y-37246D01*
X118603Y-37343D01*
X118814Y-37419D01*
X119039Y-37408D01*
X119196Y-37343D01*
X119226Y-37246D01*
X119226Y-37955D01*
X119103Y-38006D01*
X119073Y-38103D01*
X119400Y-38429D01*
X119726Y-38103D01*
X119726Y-38244D01*
X119470Y-38500D01*
X119796Y-38826D01*
X119893Y-38796D01*
X119969Y-38585D01*
X119969Y-40185D01*
X119888Y-40184D01*
X119726Y-40251D01*
X119726Y-38896D01*
X119400Y-38570D01*
X119329Y-38641D01*
X119329Y-38500D01*
X119128Y-38298D01*
X119079Y-38180D01*
X118920Y-38021D01*
X118712Y-37935D01*
X118488Y-37934D01*
X118280Y-38020D01*
X118121Y-38179D01*
X118035Y-38387D01*
X118034Y-38611D01*
X118120Y-38819D01*
X118279Y-38978D01*
X118487Y-39064D01*
X118711Y-39065D01*
X118919Y-38979D01*
X119078Y-38820D01*
X119128Y-38701D01*
X119329Y-38500D01*
X119329Y-38641D01*
X119073Y-38896D01*
X119103Y-38993D01*
X119314Y-39069D01*
X119539Y-39058D01*
X119696Y-38993D01*
X119726Y-38896D01*
X119726Y-40251D01*
X119680Y-40270D01*
X119521Y-40429D01*
X119500Y-40480D01*
X119479Y-40430D01*
X119320Y-40271D01*
X119112Y-40185D01*
X118888Y-40184D01*
X118680Y-40270D01*
X118521Y-40429D01*
X118500Y-40480D01*
X118479Y-40430D01*
X118320Y-40271D01*
X118112Y-40185D01*
X117888Y-40184D01*
X117680Y-40270D01*
X117521Y-40429D01*
X117435Y-40637D01*
X117434Y-40861D01*
X117520Y-41069D01*
X117679Y-41228D01*
X117887Y-41314D01*
X118111Y-41315D01*
X118319Y-41229D01*
X118478Y-41070D01*
X118499Y-41019D01*
X118520Y-41069D01*
X118679Y-41228D01*
X118887Y-41314D01*
X119111Y-41315D01*
X119319Y-41229D01*
X119478Y-41070D01*
X119499Y-41019D01*
X119520Y-41069D01*
X119679Y-41228D01*
X119887Y-41314D01*
X120111Y-41315D01*
X120319Y-41229D01*
X120478Y-41070D01*
X120564Y-40862D01*
X120565Y-40638D01*
X120565Y-41480D01*
X113039Y-41480D01*
X113039Y-40164D01*
X113025Y-40130D01*
X113025Y-33996D01*
X113025Y-30496D01*
X112945Y-30303D01*
X112797Y-30155D01*
X112604Y-30075D01*
X112396Y-30074D01*
X112203Y-30154D01*
X112055Y-30302D01*
X111975Y-30495D01*
X111974Y-30703D01*
X112054Y-30897D01*
X112202Y-31044D01*
X112395Y-31124D01*
X112603Y-31125D01*
X112797Y-31045D01*
X112944Y-30897D01*
X113024Y-30704D01*
X113025Y-30496D01*
X113025Y-33996D01*
X112945Y-33803D01*
X112797Y-33655D01*
X112604Y-33575D01*
X112396Y-33574D01*
X112203Y-33654D01*
X112055Y-33802D01*
X111975Y-33995D01*
X111974Y-34203D01*
X112054Y-34397D01*
X112202Y-34544D01*
X112395Y-34624D01*
X112603Y-34625D01*
X112797Y-34545D01*
X112944Y-34397D01*
X113024Y-34204D01*
X113025Y-33996D01*
X113025Y-40130D01*
X112896Y-39818D01*
X112632Y-39554D01*
X112287Y-39411D01*
X112169Y-39411D01*
X112169Y-37235D01*
X112165Y-37138D01*
X112165Y-36038D01*
X112079Y-35830D01*
X111920Y-35671D01*
X111712Y-35585D01*
X111488Y-35584D01*
X111280Y-35670D01*
X111121Y-35829D01*
X111035Y-36037D01*
X111034Y-36261D01*
X111120Y-36469D01*
X111279Y-36628D01*
X111324Y-36647D01*
X111303Y-36656D01*
X111273Y-36753D01*
X111600Y-37079D01*
X111926Y-36753D01*
X111896Y-36656D01*
X111873Y-36648D01*
X111919Y-36629D01*
X112078Y-36470D01*
X112164Y-36262D01*
X112165Y-36038D01*
X112165Y-37138D01*
X112158Y-37010D01*
X112093Y-36853D01*
X111996Y-36823D01*
X111670Y-37150D01*
X111996Y-37476D01*
X112093Y-37446D01*
X112169Y-37235D01*
X112169Y-39411D01*
X112165Y-39411D01*
X112165Y-38038D01*
X112079Y-37830D01*
X111920Y-37671D01*
X111875Y-37652D01*
X111896Y-37643D01*
X111926Y-37546D01*
X111600Y-37220D01*
X111529Y-37291D01*
X111529Y-37150D01*
X111203Y-36823D01*
X111106Y-36853D01*
X111030Y-37064D01*
X111041Y-37289D01*
X111106Y-37446D01*
X111203Y-37476D01*
X111529Y-37150D01*
X111529Y-37291D01*
X111273Y-37546D01*
X111303Y-37643D01*
X111326Y-37651D01*
X111280Y-37670D01*
X111121Y-37829D01*
X111035Y-38037D01*
X111034Y-38261D01*
X111120Y-38469D01*
X111279Y-38628D01*
X111487Y-38714D01*
X111711Y-38715D01*
X111919Y-38629D01*
X112078Y-38470D01*
X112164Y-38262D01*
X112165Y-38038D01*
X112165Y-39411D01*
X111914Y-39410D01*
X111568Y-39553D01*
X111304Y-39817D01*
X111161Y-40162D01*
X111160Y-40535D01*
X111303Y-40881D01*
X111567Y-41145D01*
X111912Y-41288D01*
X112285Y-41289D01*
X112631Y-41146D01*
X112895Y-40882D01*
X113038Y-40537D01*
X113039Y-40164D01*
X113039Y-41480D01*
X111683Y-41480D01*
X111389Y-41406D01*
X111161Y-41237D01*
X111016Y-40994D01*
X110969Y-40680D01*
X110969Y-17676D01*
X111029Y-17373D01*
X111188Y-17136D01*
X111421Y-16980D01*
X111728Y-16919D01*
X126180Y-16919D01*
X126494Y-16966D01*
X126737Y-17111D01*
X126906Y-17339D01*
X126980Y-17633D01*
X126980Y-40721D01*
X126980Y-40721D01*
G37*
G54D16*
X126980Y-40721D02*
X126919Y-41028D01*
X126789Y-41223D01*
X126789Y-40164D01*
X126769Y-40116D01*
X126769Y-28385D01*
X126765Y-28288D01*
X126765Y-27188D01*
X126679Y-26980D01*
X126520Y-26821D01*
X126469Y-26800D01*
X126519Y-26779D01*
X126678Y-26620D01*
X126764Y-26412D01*
X126765Y-26188D01*
X126679Y-25980D01*
X126520Y-25821D01*
X126519Y-25821D01*
X126519Y-20435D01*
X126515Y-20338D01*
X126515Y-18438D01*
X126429Y-18230D01*
X126270Y-18071D01*
X126062Y-17985D01*
X125838Y-17984D01*
X125643Y-18065D01*
X125643Y-17822D01*
X125546Y-17585D01*
X125365Y-17404D01*
X125128Y-17306D01*
X124872Y-17306D01*
X124635Y-17403D01*
X124454Y-17584D01*
X124356Y-17821D01*
X124356Y-18077D01*
X124453Y-18314D01*
X124634Y-18495D01*
X124871Y-18593D01*
X125127Y-18593D01*
X125364Y-18496D01*
X125385Y-18475D01*
X125384Y-18661D01*
X125470Y-18869D01*
X125629Y-19028D01*
X125837Y-19114D01*
X126061Y-19115D01*
X126269Y-19029D01*
X126428Y-18870D01*
X126514Y-18662D01*
X126515Y-18438D01*
X126515Y-20338D01*
X126508Y-20210D01*
X126443Y-20053D01*
X126346Y-20023D01*
X126276Y-20094D01*
X126276Y-19953D01*
X126246Y-19856D01*
X126035Y-19780D01*
X125810Y-19791D01*
X125653Y-19856D01*
X125623Y-19953D01*
X125950Y-20279D01*
X126276Y-19953D01*
X126276Y-20094D01*
X126020Y-20350D01*
X126346Y-20676D01*
X126443Y-20646D01*
X126519Y-20435D01*
X126519Y-25821D01*
X126312Y-25735D01*
X126276Y-25735D01*
X126276Y-20746D01*
X125950Y-20420D01*
X125944Y-20426D01*
X125879Y-20361D01*
X125873Y-20355D01*
X125879Y-20350D01*
X125553Y-20023D01*
X125456Y-20053D01*
X125380Y-20264D01*
X125388Y-20427D01*
X125315Y-20354D01*
X125078Y-20256D01*
X124822Y-20256D01*
X124585Y-20353D01*
X124404Y-20534D01*
X124306Y-20771D01*
X124306Y-21027D01*
X124403Y-21264D01*
X124584Y-21445D01*
X124821Y-21543D01*
X125077Y-21543D01*
X125314Y-21446D01*
X125495Y-21265D01*
X125593Y-21028D01*
X125593Y-20776D01*
X125623Y-20746D01*
X125653Y-20843D01*
X125864Y-20919D01*
X126089Y-20908D01*
X126246Y-20843D01*
X126276Y-20746D01*
X126276Y-25735D01*
X126088Y-25734D01*
X125880Y-25820D01*
X125721Y-25979D01*
X125635Y-26187D01*
X125634Y-26411D01*
X125720Y-26619D01*
X125879Y-26778D01*
X125930Y-26799D01*
X125880Y-26820D01*
X125721Y-26979D01*
X125635Y-27187D01*
X125634Y-27411D01*
X125720Y-27619D01*
X125879Y-27778D01*
X125924Y-27797D01*
X125903Y-27806D01*
X125873Y-27903D01*
X126200Y-28229D01*
X126526Y-27903D01*
X126496Y-27806D01*
X126473Y-27798D01*
X126519Y-27779D01*
X126678Y-27620D01*
X126764Y-27412D01*
X126765Y-27188D01*
X126765Y-28288D01*
X126758Y-28160D01*
X126693Y-28003D01*
X126596Y-27973D01*
X126270Y-28300D01*
X126596Y-28626D01*
X126693Y-28596D01*
X126769Y-28385D01*
X126769Y-40116D01*
X126765Y-40105D01*
X126765Y-29188D01*
X126679Y-28980D01*
X126520Y-28821D01*
X126475Y-28802D01*
X126496Y-28793D01*
X126526Y-28696D01*
X126200Y-28370D01*
X126129Y-28441D01*
X126129Y-28300D01*
X125803Y-27973D01*
X125706Y-28003D01*
X125630Y-28214D01*
X125641Y-28439D01*
X125706Y-28596D01*
X125803Y-28626D01*
X126129Y-28300D01*
X126129Y-28441D01*
X125873Y-28696D01*
X125903Y-28793D01*
X125926Y-28801D01*
X125880Y-28820D01*
X125721Y-28979D01*
X125635Y-29187D01*
X125634Y-29411D01*
X125720Y-29619D01*
X125879Y-29778D01*
X126087Y-29864D01*
X126311Y-29865D01*
X126519Y-29779D01*
X126678Y-29620D01*
X126764Y-29412D01*
X126765Y-29188D01*
X126765Y-40105D01*
X126665Y-39863D01*
X126665Y-31688D01*
X126579Y-31480D01*
X126420Y-31321D01*
X126212Y-31235D01*
X125988Y-31234D01*
X125780Y-31320D01*
X125621Y-31479D01*
X125535Y-31687D01*
X125534Y-31911D01*
X125620Y-32119D01*
X125779Y-32278D01*
X125987Y-32364D01*
X126211Y-32365D01*
X126419Y-32279D01*
X126578Y-32120D01*
X126664Y-31912D01*
X126665Y-31688D01*
X126665Y-39863D01*
X126646Y-39818D01*
X126382Y-39554D01*
X126037Y-39411D01*
X125664Y-39410D01*
X125318Y-39553D01*
X125054Y-39817D01*
X124911Y-40162D01*
X124910Y-40535D01*
X125053Y-40881D01*
X125317Y-41145D01*
X125662Y-41288D01*
X126035Y-41289D01*
X126381Y-41146D01*
X126645Y-40882D01*
X126788Y-40537D01*
X126789Y-40164D01*
X126789Y-41223D01*
X126763Y-41261D01*
X126526Y-41420D01*
X126223Y-41480D01*
X124065Y-41480D01*
X124065Y-27988D01*
X124065Y-21988D01*
X123979Y-21780D01*
X123889Y-21690D01*
X123889Y-19264D01*
X123746Y-18918D01*
X123482Y-18654D01*
X123137Y-18511D01*
X122764Y-18510D01*
X122418Y-18653D01*
X122154Y-18917D01*
X122011Y-19262D01*
X122010Y-19635D01*
X122153Y-19981D01*
X122417Y-20245D01*
X122762Y-20388D01*
X123135Y-20389D01*
X123481Y-20246D01*
X123745Y-19982D01*
X123888Y-19637D01*
X123889Y-19264D01*
X123889Y-21690D01*
X123820Y-21621D01*
X123612Y-21535D01*
X123388Y-21534D01*
X123180Y-21620D01*
X123021Y-21779D01*
X123000Y-21830D01*
X122979Y-21780D01*
X122820Y-21621D01*
X122612Y-21535D01*
X122388Y-21534D01*
X122180Y-21620D01*
X122021Y-21779D01*
X122000Y-21830D01*
X121979Y-21780D01*
X121820Y-21621D01*
X121612Y-21535D01*
X121388Y-21534D01*
X121180Y-21620D01*
X121021Y-21779D01*
X121000Y-21830D01*
X120979Y-21780D01*
X120820Y-21621D01*
X120612Y-21535D01*
X120388Y-21534D01*
X120180Y-21620D01*
X120021Y-21779D01*
X120000Y-21830D01*
X119979Y-21780D01*
X119820Y-21621D01*
X119612Y-21535D01*
X119388Y-21534D01*
X119180Y-21620D01*
X119021Y-21779D01*
X119000Y-21830D01*
X118979Y-21780D01*
X118820Y-21621D01*
X118612Y-21535D01*
X118388Y-21534D01*
X118180Y-21620D01*
X118021Y-21779D01*
X118000Y-21830D01*
X117979Y-21780D01*
X117820Y-21621D01*
X117612Y-21535D01*
X117388Y-21534D01*
X117180Y-21620D01*
X117021Y-21779D01*
X117000Y-21830D01*
X116979Y-21780D01*
X116820Y-21621D01*
X116612Y-21535D01*
X116388Y-21534D01*
X116180Y-21620D01*
X116021Y-21779D01*
X116000Y-21830D01*
X115979Y-21780D01*
X115939Y-21740D01*
X115939Y-19264D01*
X115796Y-18918D01*
X115532Y-18654D01*
X115187Y-18511D01*
X114814Y-18510D01*
X114468Y-18653D01*
X114204Y-18917D01*
X114061Y-19262D01*
X114060Y-19635D01*
X114203Y-19981D01*
X114467Y-20245D01*
X114812Y-20388D01*
X115185Y-20389D01*
X115531Y-20246D01*
X115795Y-19982D01*
X115938Y-19637D01*
X115939Y-19264D01*
X115939Y-21740D01*
X115820Y-21621D01*
X115612Y-21535D01*
X115388Y-21534D01*
X115180Y-21620D01*
X115021Y-21779D01*
X115000Y-21830D01*
X114979Y-21780D01*
X114820Y-21621D01*
X114612Y-21535D01*
X114388Y-21534D01*
X114180Y-21620D01*
X114021Y-21779D01*
X114002Y-21824D01*
X113993Y-21803D01*
X113896Y-21773D01*
X113826Y-21844D01*
X113826Y-21703D01*
X113796Y-21606D01*
X113643Y-21551D01*
X113643Y-17872D01*
X113546Y-17635D01*
X113365Y-17454D01*
X113128Y-17356D01*
X112872Y-17356D01*
X112635Y-17453D01*
X112454Y-17634D01*
X112356Y-17871D01*
X112356Y-18123D01*
X112326Y-18153D01*
X112296Y-18056D01*
X112085Y-17980D01*
X111860Y-17991D01*
X111703Y-18056D01*
X111673Y-18153D01*
X112000Y-18479D01*
X112005Y-18473D01*
X112076Y-18544D01*
X112070Y-18550D01*
X112396Y-18876D01*
X112493Y-18846D01*
X112569Y-18635D01*
X112561Y-18472D01*
X112634Y-18545D01*
X112871Y-18643D01*
X113127Y-18643D01*
X113364Y-18546D01*
X113545Y-18365D01*
X113643Y-18128D01*
X113643Y-17872D01*
X113643Y-21551D01*
X113593Y-21533D01*
X113593Y-20822D01*
X113496Y-20585D01*
X113315Y-20404D01*
X113078Y-20306D01*
X112822Y-20306D01*
X112585Y-20403D01*
X112564Y-20424D01*
X112565Y-20238D01*
X112479Y-20030D01*
X112326Y-19876D01*
X112326Y-18946D01*
X112000Y-18620D01*
X111929Y-18691D01*
X111929Y-18550D01*
X111603Y-18223D01*
X111506Y-18253D01*
X111430Y-18464D01*
X111441Y-18689D01*
X111506Y-18846D01*
X111603Y-18876D01*
X111929Y-18550D01*
X111929Y-18691D01*
X111673Y-18946D01*
X111703Y-19043D01*
X111914Y-19119D01*
X112139Y-19108D01*
X112296Y-19043D01*
X112326Y-18946D01*
X112326Y-19876D01*
X112320Y-19871D01*
X112112Y-19785D01*
X111888Y-19784D01*
X111680Y-19870D01*
X111521Y-20029D01*
X111435Y-20237D01*
X111434Y-20461D01*
X111520Y-20669D01*
X111679Y-20828D01*
X111887Y-20914D01*
X112111Y-20915D01*
X112306Y-20834D01*
X112306Y-21077D01*
X112403Y-21314D01*
X112584Y-21495D01*
X112821Y-21593D01*
X113077Y-21593D01*
X113314Y-21496D01*
X113495Y-21315D01*
X113593Y-21078D01*
X113593Y-20822D01*
X113593Y-21533D01*
X113585Y-21530D01*
X113360Y-21541D01*
X113203Y-21606D01*
X113173Y-21703D01*
X113500Y-22029D01*
X113826Y-21703D01*
X113826Y-21844D01*
X113570Y-22100D01*
X113896Y-22426D01*
X113993Y-22396D01*
X114001Y-22373D01*
X114020Y-22419D01*
X114179Y-22578D01*
X114387Y-22664D01*
X114611Y-22665D01*
X114819Y-22579D01*
X114978Y-22420D01*
X114999Y-22369D01*
X115020Y-22419D01*
X115179Y-22578D01*
X115387Y-22664D01*
X115611Y-22665D01*
X115819Y-22579D01*
X115978Y-22420D01*
X115999Y-22369D01*
X116020Y-22419D01*
X116179Y-22578D01*
X116387Y-22664D01*
X116611Y-22665D01*
X116819Y-22579D01*
X116978Y-22420D01*
X116999Y-22369D01*
X117020Y-22419D01*
X117179Y-22578D01*
X117387Y-22664D01*
X117611Y-22665D01*
X117819Y-22579D01*
X117978Y-22420D01*
X117999Y-22369D01*
X118020Y-22419D01*
X118179Y-22578D01*
X118387Y-22664D01*
X118611Y-22665D01*
X118819Y-22579D01*
X118978Y-22420D01*
X118999Y-22369D01*
X119020Y-22419D01*
X119179Y-22578D01*
X119387Y-22664D01*
X119611Y-22665D01*
X119819Y-22579D01*
X119978Y-22420D01*
X119999Y-22369D01*
X120020Y-22419D01*
X120179Y-22578D01*
X120387Y-22664D01*
X120611Y-22665D01*
X120819Y-22579D01*
X120978Y-22420D01*
X120999Y-22369D01*
X121020Y-22419D01*
X121179Y-22578D01*
X121387Y-22664D01*
X121611Y-22665D01*
X121819Y-22579D01*
X121978Y-22420D01*
X121999Y-22369D01*
X122020Y-22419D01*
X122179Y-22578D01*
X122387Y-22664D01*
X122611Y-22665D01*
X122819Y-22579D01*
X122978Y-22420D01*
X122999Y-22369D01*
X123020Y-22419D01*
X123179Y-22578D01*
X123387Y-22664D01*
X123611Y-22665D01*
X123819Y-22579D01*
X123978Y-22420D01*
X124064Y-22212D01*
X124065Y-21988D01*
X124065Y-27988D01*
X123979Y-27780D01*
X123820Y-27621D01*
X123612Y-27535D01*
X123388Y-27534D01*
X123180Y-27620D01*
X123021Y-27779D01*
X123000Y-27830D01*
X122979Y-27780D01*
X122820Y-27621D01*
X122612Y-27535D01*
X122388Y-27534D01*
X122180Y-27620D01*
X122021Y-27779D01*
X122000Y-27830D01*
X121979Y-27780D01*
X121820Y-27621D01*
X121612Y-27535D01*
X121388Y-27534D01*
X121180Y-27620D01*
X121021Y-27779D01*
X121000Y-27830D01*
X120979Y-27780D01*
X120820Y-27621D01*
X120612Y-27535D01*
X120388Y-27534D01*
X120180Y-27620D01*
X120021Y-27779D01*
X120000Y-27830D01*
X119979Y-27780D01*
X119820Y-27621D01*
X119612Y-27535D01*
X119388Y-27534D01*
X119180Y-27620D01*
X119021Y-27779D01*
X119000Y-27830D01*
X118979Y-27780D01*
X118820Y-27621D01*
X118612Y-27535D01*
X118388Y-27534D01*
X118180Y-27620D01*
X118021Y-27779D01*
X118000Y-27830D01*
X117979Y-27780D01*
X117820Y-27621D01*
X117612Y-27535D01*
X117388Y-27534D01*
X117180Y-27620D01*
X117021Y-27779D01*
X117000Y-27830D01*
X116979Y-27780D01*
X116820Y-27621D01*
X116612Y-27535D01*
X116388Y-27534D01*
X116180Y-27620D01*
X116021Y-27779D01*
X116000Y-27830D01*
X115979Y-27780D01*
X115820Y-27621D01*
X115612Y-27535D01*
X115388Y-27534D01*
X115180Y-27620D01*
X115021Y-27779D01*
X115000Y-27830D01*
X114979Y-27780D01*
X114820Y-27621D01*
X114612Y-27535D01*
X114388Y-27534D01*
X114180Y-27620D01*
X114021Y-27779D01*
X114000Y-27830D01*
X113979Y-27780D01*
X113826Y-27626D01*
X113826Y-22496D01*
X113500Y-22170D01*
X113429Y-22241D01*
X113429Y-22100D01*
X113103Y-21773D01*
X113006Y-21803D01*
X112998Y-21826D01*
X112979Y-21780D01*
X112820Y-21621D01*
X112612Y-21535D01*
X112388Y-21534D01*
X112180Y-21620D01*
X112021Y-21779D01*
X111935Y-21987D01*
X111934Y-22211D01*
X112020Y-22419D01*
X112179Y-22578D01*
X112387Y-22664D01*
X112611Y-22665D01*
X112819Y-22579D01*
X112978Y-22420D01*
X112997Y-22375D01*
X113006Y-22396D01*
X113103Y-22426D01*
X113429Y-22100D01*
X113429Y-22241D01*
X113173Y-22496D01*
X113203Y-22593D01*
X113414Y-22669D01*
X113639Y-22658D01*
X113796Y-22593D01*
X113826Y-22496D01*
X113826Y-27626D01*
X113820Y-27621D01*
X113612Y-27535D01*
X113388Y-27534D01*
X113180Y-27620D01*
X113021Y-27779D01*
X113000Y-27830D01*
X112979Y-27780D01*
X112820Y-27621D01*
X112612Y-27535D01*
X112388Y-27534D01*
X112180Y-27620D01*
X112021Y-27779D01*
X111935Y-27987D01*
X111934Y-28211D01*
X112020Y-28419D01*
X112179Y-28578D01*
X112387Y-28664D01*
X112611Y-28665D01*
X112819Y-28579D01*
X112978Y-28420D01*
X112999Y-28369D01*
X113020Y-28419D01*
X113179Y-28578D01*
X113387Y-28664D01*
X113611Y-28665D01*
X113819Y-28579D01*
X113978Y-28420D01*
X113999Y-28369D01*
X114020Y-28419D01*
X114179Y-28578D01*
X114387Y-28664D01*
X114611Y-28665D01*
X114819Y-28579D01*
X114978Y-28420D01*
X114999Y-28369D01*
X115020Y-28419D01*
X115179Y-28578D01*
X115387Y-28664D01*
X115611Y-28665D01*
X115819Y-28579D01*
X115978Y-28420D01*
X115999Y-28369D01*
X116020Y-28419D01*
X116179Y-28578D01*
X116387Y-28664D01*
X116611Y-28665D01*
X116819Y-28579D01*
X116978Y-28420D01*
X116999Y-28369D01*
X117020Y-28419D01*
X117179Y-28578D01*
X117387Y-28664D01*
X117611Y-28665D01*
X117819Y-28579D01*
X117978Y-28420D01*
X117999Y-28369D01*
X118020Y-28419D01*
X118179Y-28578D01*
X118387Y-28664D01*
X118611Y-28665D01*
X118819Y-28579D01*
X118978Y-28420D01*
X118999Y-28369D01*
X119020Y-28419D01*
X119179Y-28578D01*
X119387Y-28664D01*
X119611Y-28665D01*
X119819Y-28579D01*
X119978Y-28420D01*
X119999Y-28369D01*
X120020Y-28419D01*
X120179Y-28578D01*
X120387Y-28664D01*
X120611Y-28665D01*
X120819Y-28579D01*
X120978Y-28420D01*
X120999Y-28369D01*
X121020Y-28419D01*
X121179Y-28578D01*
X121387Y-28664D01*
X121611Y-28665D01*
X121819Y-28579D01*
X121978Y-28420D01*
X121999Y-28369D01*
X122020Y-28419D01*
X122179Y-28578D01*
X122387Y-28664D01*
X122611Y-28665D01*
X122819Y-28579D01*
X122978Y-28420D01*
X122999Y-28369D01*
X123020Y-28419D01*
X123179Y-28578D01*
X123387Y-28664D01*
X123611Y-28665D01*
X123819Y-28579D01*
X123978Y-28420D01*
X124064Y-28212D01*
X124065Y-27988D01*
X124065Y-41480D01*
X123665Y-41480D01*
X123665Y-31688D01*
X123579Y-31480D01*
X123420Y-31321D01*
X123212Y-31235D01*
X122988Y-31234D01*
X122780Y-31320D01*
X122621Y-31479D01*
X122535Y-31687D01*
X122534Y-31911D01*
X122620Y-32119D01*
X122779Y-32278D01*
X122987Y-32364D01*
X123211Y-32365D01*
X123419Y-32279D01*
X123578Y-32120D01*
X123664Y-31912D01*
X123665Y-31688D01*
X123665Y-41480D01*
X123319Y-41480D01*
X123319Y-36635D01*
X123315Y-36538D01*
X123315Y-35438D01*
X123229Y-35230D01*
X123070Y-35071D01*
X122862Y-34985D01*
X122638Y-34984D01*
X122430Y-35070D01*
X122271Y-35229D01*
X122185Y-35437D01*
X122184Y-35661D01*
X122270Y-35869D01*
X122429Y-36028D01*
X122474Y-36047D01*
X122453Y-36056D01*
X122423Y-36153D01*
X122750Y-36479D01*
X123076Y-36153D01*
X123046Y-36056D01*
X123023Y-36048D01*
X123069Y-36029D01*
X123228Y-35870D01*
X123314Y-35662D01*
X123315Y-35438D01*
X123315Y-36538D01*
X123308Y-36410D01*
X123243Y-36253D01*
X123146Y-36223D01*
X122820Y-36550D01*
X123146Y-36876D01*
X123243Y-36846D01*
X123319Y-36635D01*
X123319Y-41480D01*
X123315Y-41480D01*
X123315Y-37438D01*
X123229Y-37230D01*
X123070Y-37071D01*
X123025Y-37052D01*
X123046Y-37043D01*
X123076Y-36946D01*
X122750Y-36620D01*
X122679Y-36691D01*
X122679Y-36550D01*
X122353Y-36223D01*
X122256Y-36253D01*
X122180Y-36464D01*
X122191Y-36689D01*
X122256Y-36846D01*
X122353Y-36876D01*
X122679Y-36550D01*
X122679Y-36691D01*
X122423Y-36946D01*
X122453Y-37043D01*
X122476Y-37051D01*
X122430Y-37070D01*
X122271Y-37229D01*
X122185Y-37437D01*
X122184Y-37661D01*
X122270Y-37869D01*
X122429Y-38028D01*
X122637Y-38114D01*
X122861Y-38115D01*
X123069Y-38029D01*
X123228Y-37870D01*
X123314Y-37662D01*
X123315Y-37438D01*
X123315Y-41480D01*
X121329Y-41480D01*
X121329Y-33075D01*
X121325Y-32987D01*
X121325Y-29396D01*
X121245Y-29203D01*
X121097Y-29055D01*
X120904Y-28975D01*
X120696Y-28974D01*
X120503Y-29054D01*
X120355Y-29202D01*
X120275Y-29395D01*
X120274Y-29603D01*
X120354Y-29797D01*
X120502Y-29944D01*
X120695Y-30024D01*
X120903Y-30025D01*
X121097Y-29945D01*
X121244Y-29797D01*
X121324Y-29604D01*
X121325Y-29396D01*
X121325Y-32987D01*
X121318Y-32867D01*
X121260Y-32727D01*
X121167Y-32702D01*
X121097Y-32773D01*
X121097Y-32632D01*
X121072Y-32539D01*
X120875Y-32470D01*
X120667Y-32481D01*
X120527Y-32539D01*
X120502Y-32632D01*
X120800Y-32929D01*
X121097Y-32632D01*
X121097Y-32773D01*
X120870Y-33000D01*
X121167Y-33297D01*
X121260Y-33272D01*
X121329Y-33075D01*
X121329Y-41480D01*
X121097Y-41480D01*
X121097Y-33367D01*
X120800Y-33070D01*
X120729Y-33141D01*
X120729Y-33000D01*
X120432Y-32702D01*
X120339Y-32727D01*
X120270Y-32924D01*
X120281Y-33132D01*
X120339Y-33272D01*
X120432Y-33297D01*
X120729Y-33000D01*
X120729Y-33141D01*
X120502Y-33367D01*
X120527Y-33460D01*
X120724Y-33529D01*
X120932Y-33518D01*
X121072Y-33460D01*
X121097Y-33367D01*
X121097Y-41480D01*
X120565Y-41480D01*
X120565Y-40638D01*
X120479Y-40430D01*
X120465Y-40416D01*
X120465Y-36738D01*
X120379Y-36530D01*
X120220Y-36371D01*
X120012Y-36285D01*
X119788Y-36284D01*
X119580Y-36370D01*
X119421Y-36529D01*
X119402Y-36574D01*
X119393Y-36553D01*
X119296Y-36523D01*
X119226Y-36594D01*
X119226Y-36453D01*
X119196Y-36356D01*
X119015Y-36291D01*
X119015Y-29488D01*
X118929Y-29280D01*
X118770Y-29121D01*
X118562Y-29035D01*
X118338Y-29034D01*
X118130Y-29120D01*
X117971Y-29279D01*
X117952Y-29324D01*
X117943Y-29303D01*
X117846Y-29273D01*
X117776Y-29344D01*
X117776Y-29203D01*
X117746Y-29106D01*
X117535Y-29030D01*
X117310Y-29041D01*
X117153Y-29106D01*
X117123Y-29203D01*
X117450Y-29529D01*
X117776Y-29203D01*
X117776Y-29344D01*
X117520Y-29600D01*
X117846Y-29926D01*
X117943Y-29896D01*
X117951Y-29873D01*
X117970Y-29919D01*
X118129Y-30078D01*
X118337Y-30164D01*
X118561Y-30165D01*
X118769Y-30079D01*
X118928Y-29920D01*
X119014Y-29712D01*
X119015Y-29488D01*
X119015Y-36291D01*
X118985Y-36280D01*
X118760Y-36291D01*
X118603Y-36356D01*
X118573Y-36453D01*
X118900Y-36779D01*
X119226Y-36453D01*
X119226Y-36594D01*
X118970Y-36850D01*
X119296Y-37176D01*
X119393Y-37146D01*
X119401Y-37123D01*
X119420Y-37169D01*
X119579Y-37328D01*
X119787Y-37414D01*
X120011Y-37415D01*
X120219Y-37329D01*
X120378Y-37170D01*
X120464Y-36962D01*
X120465Y-36738D01*
X120465Y-40416D01*
X120320Y-40271D01*
X120112Y-40185D01*
X119969Y-40185D01*
X119969Y-38585D01*
X119958Y-38360D01*
X119893Y-38203D01*
X119796Y-38173D01*
X119726Y-38244D01*
X119726Y-38103D01*
X119696Y-38006D01*
X119485Y-37930D01*
X119260Y-37941D01*
X119226Y-37955D01*
X119226Y-37246D01*
X118900Y-36920D01*
X118829Y-36991D01*
X118829Y-36850D01*
X118503Y-36523D01*
X118406Y-36553D01*
X118398Y-36576D01*
X118379Y-36530D01*
X118220Y-36371D01*
X118012Y-36285D01*
X117788Y-36284D01*
X117776Y-36289D01*
X117776Y-29996D01*
X117450Y-29670D01*
X117379Y-29741D01*
X117379Y-29600D01*
X117053Y-29273D01*
X116956Y-29303D01*
X116948Y-29326D01*
X116929Y-29280D01*
X116770Y-29121D01*
X116562Y-29035D01*
X116338Y-29034D01*
X116130Y-29120D01*
X115971Y-29279D01*
X115950Y-29330D01*
X115929Y-29280D01*
X115770Y-29121D01*
X115562Y-29035D01*
X115338Y-29034D01*
X115130Y-29120D01*
X114971Y-29279D01*
X114885Y-29487D01*
X114884Y-29711D01*
X114970Y-29919D01*
X115129Y-30078D01*
X115337Y-30164D01*
X115561Y-30165D01*
X115769Y-30079D01*
X115928Y-29920D01*
X115949Y-29869D01*
X115970Y-29919D01*
X116129Y-30078D01*
X116337Y-30164D01*
X116561Y-30165D01*
X116769Y-30079D01*
X116928Y-29920D01*
X116947Y-29875D01*
X116956Y-29896D01*
X117053Y-29926D01*
X117379Y-29600D01*
X117379Y-29741D01*
X117123Y-29996D01*
X117153Y-30093D01*
X117364Y-30169D01*
X117589Y-30158D01*
X117746Y-30093D01*
X117776Y-29996D01*
X117776Y-36289D01*
X117580Y-36370D01*
X117421Y-36529D01*
X117335Y-36737D01*
X117334Y-36961D01*
X117420Y-37169D01*
X117579Y-37328D01*
X117787Y-37414D01*
X118011Y-37415D01*
X118219Y-37329D01*
X118378Y-37170D01*
X118397Y-37125D01*
X118406Y-37146D01*
X118503Y-37176D01*
X118829Y-36850D01*
X118829Y-36991D01*
X118573Y-37246D01*
X118603Y-37343D01*
X118814Y-37419D01*
X119039Y-37408D01*
X119196Y-37343D01*
X119226Y-37246D01*
X119226Y-37955D01*
X119103Y-38006D01*
X119073Y-38103D01*
X119400Y-38429D01*
X119726Y-38103D01*
X119726Y-38244D01*
X119470Y-38500D01*
X119796Y-38826D01*
X119893Y-38796D01*
X119969Y-38585D01*
X119969Y-40185D01*
X119888Y-40184D01*
X119726Y-40251D01*
X119726Y-38896D01*
X119400Y-38570D01*
X119329Y-38641D01*
X119329Y-38500D01*
X119128Y-38298D01*
X119079Y-38180D01*
X118920Y-38021D01*
X118712Y-37935D01*
X118488Y-37934D01*
X118280Y-38020D01*
X118121Y-38179D01*
X118035Y-38387D01*
X118034Y-38611D01*
X118120Y-38819D01*
X118279Y-38978D01*
X118487Y-39064D01*
X118711Y-39065D01*
X118919Y-38979D01*
X119078Y-38820D01*
X119128Y-38701D01*
X119329Y-38500D01*
X119329Y-38641D01*
X119073Y-38896D01*
X119103Y-38993D01*
X119314Y-39069D01*
X119539Y-39058D01*
X119696Y-38993D01*
X119726Y-38896D01*
X119726Y-40251D01*
X119680Y-40270D01*
X119521Y-40429D01*
X119500Y-40480D01*
X119479Y-40430D01*
X119320Y-40271D01*
X119112Y-40185D01*
X118888Y-40184D01*
X118680Y-40270D01*
X118521Y-40429D01*
X118500Y-40480D01*
X118479Y-40430D01*
X118320Y-40271D01*
X118112Y-40185D01*
X117888Y-40184D01*
X117680Y-40270D01*
X117521Y-40429D01*
X117435Y-40637D01*
X117434Y-40861D01*
X117520Y-41069D01*
X117679Y-41228D01*
X117887Y-41314D01*
X118111Y-41315D01*
X118319Y-41229D01*
X118478Y-41070D01*
X118499Y-41019D01*
X118520Y-41069D01*
X118679Y-41228D01*
X118887Y-41314D01*
X119111Y-41315D01*
X119319Y-41229D01*
X119478Y-41070D01*
X119499Y-41019D01*
X119520Y-41069D01*
X119679Y-41228D01*
X119887Y-41314D01*
X120111Y-41315D01*
X120319Y-41229D01*
X120478Y-41070D01*
X120564Y-40862D01*
X120565Y-40638D01*
X120565Y-41480D01*
X113039Y-41480D01*
X113039Y-40164D01*
X113025Y-40130D01*
X113025Y-33996D01*
X113025Y-30496D01*
X112945Y-30303D01*
X112797Y-30155D01*
X112604Y-30075D01*
X112396Y-30074D01*
X112203Y-30154D01*
X112055Y-30302D01*
X111975Y-30495D01*
X111974Y-30703D01*
X112054Y-30897D01*
X112202Y-31044D01*
X112395Y-31124D01*
X112603Y-31125D01*
X112797Y-31045D01*
X112944Y-30897D01*
X113024Y-30704D01*
X113025Y-30496D01*
X113025Y-33996D01*
X112945Y-33803D01*
X112797Y-33655D01*
X112604Y-33575D01*
X112396Y-33574D01*
X112203Y-33654D01*
X112055Y-33802D01*
X111975Y-33995D01*
X111974Y-34203D01*
X112054Y-34397D01*
X112202Y-34544D01*
X112395Y-34624D01*
X112603Y-34625D01*
X112797Y-34545D01*
X112944Y-34397D01*
X113024Y-34204D01*
X113025Y-33996D01*
X113025Y-40130D01*
X112896Y-39818D01*
X112632Y-39554D01*
X112287Y-39411D01*
X112169Y-39411D01*
X112169Y-37235D01*
X112165Y-37138D01*
X112165Y-36038D01*
X112079Y-35830D01*
X111920Y-35671D01*
X111712Y-35585D01*
X111488Y-35584D01*
X111280Y-35670D01*
X111121Y-35829D01*
X111035Y-36037D01*
X111034Y-36261D01*
X111120Y-36469D01*
X111279Y-36628D01*
X111324Y-36647D01*
X111303Y-36656D01*
X111273Y-36753D01*
X111600Y-37079D01*
X111926Y-36753D01*
X111896Y-36656D01*
X111873Y-36648D01*
X111919Y-36629D01*
X112078Y-36470D01*
X112164Y-36262D01*
X112165Y-36038D01*
X112165Y-37138D01*
X112158Y-37010D01*
X112093Y-36853D01*
X111996Y-36823D01*
X111670Y-37150D01*
X111996Y-37476D01*
X112093Y-37446D01*
X112169Y-37235D01*
X112169Y-39411D01*
X112165Y-39411D01*
X112165Y-38038D01*
X112079Y-37830D01*
X111920Y-37671D01*
X111875Y-37652D01*
X111896Y-37643D01*
X111926Y-37546D01*
X111600Y-37220D01*
X111529Y-37291D01*
X111529Y-37150D01*
X111203Y-36823D01*
X111106Y-36853D01*
X111030Y-37064D01*
X111041Y-37289D01*
X111106Y-37446D01*
X111203Y-37476D01*
X111529Y-37150D01*
X111529Y-37291D01*
X111273Y-37546D01*
X111303Y-37643D01*
X111326Y-37651D01*
X111280Y-37670D01*
X111121Y-37829D01*
X111035Y-38037D01*
X111034Y-38261D01*
X111120Y-38469D01*
X111279Y-38628D01*
X111487Y-38714D01*
X111711Y-38715D01*
X111919Y-38629D01*
X112078Y-38470D01*
X112164Y-38262D01*
X112165Y-38038D01*
X112165Y-39411D01*
X111914Y-39410D01*
X111568Y-39553D01*
X111304Y-39817D01*
X111161Y-40162D01*
X111160Y-40535D01*
X111303Y-40881D01*
X111567Y-41145D01*
X111912Y-41288D01*
X112285Y-41289D01*
X112631Y-41146D01*
X112895Y-40882D01*
X113038Y-40537D01*
X113039Y-40164D01*
X113039Y-41480D01*
X111683Y-41480D01*
X111389Y-41406D01*
X111161Y-41237D01*
X111016Y-40994D01*
X110969Y-40680D01*
X110969Y-17676D01*
X111029Y-17373D01*
X111188Y-17136D01*
X111421Y-16980D01*
X111728Y-16919D01*
X126180Y-16919D01*
X126494Y-16966D01*
X126737Y-17111D01*
X126906Y-17339D01*
X126980Y-17633D01*
X126980Y-40721D01*
M02*
