M48
METRIC,TZ
T1C0.635
T2C0.813
T3C1.000
T4C1.400
T5C3.000
%
G90
G05
T1
X289560Y-86106
X296418Y-50165
T2
X285750Y-77724
X285750Y-86614
X306832Y-74930
X306832Y-83820
T3
X283464Y-91821
X283464Y-94361
X283464Y-96901
X284480Y-47117
X284480Y-51689
X285750Y-56134
X285750Y-71374
X288290Y-56134
X288290Y-71374
X290830Y-56134
X290830Y-71374
X293243Y-75184
X293370Y-56134
X293370Y-71374
X295783Y-75184
X295910Y-56134
X295910Y-71374
X298323Y-75184
X298450Y-56134
X298450Y-71374
X299466Y-93599
X299720Y-103505
X300863Y-75184
X300990Y-56134
X300990Y-71374
X301244Y-97790
X302006Y-93599
X302260Y-103505
X303276Y-97790
X303530Y-56134
X303530Y-71374
X304546Y-93599
X304800Y-103505
X306070Y-56134
X306070Y-71374
X308610Y-56134
X308610Y-71374
X311150Y-56134
X311150Y-71374
X311785Y-90297
X311785Y-92837
X311785Y-95377
X312674Y-80772
X313690Y-56134
X313690Y-71374
X319913Y-47117
X319913Y-51689
X320294Y-80772
X320548Y-66802
X320548Y-69342
X320548Y-71882
X320548Y-74422
T4
X286893Y-53213
X287020Y-45720
X317373Y-53086
X317500Y-45593
T5
X284734Y-102489
X292100Y-49403
X312293Y-49403
X319659Y-102489
T0
M30
