G04 (created by PCBNEW (22-Jun-2014 BZR 4027)-stable) date Mon 17 Oct 2016 14:56:04 BST*
%MOIN*%
G04 Gerber Fmt 3.4, Leading zero omitted, Abs format*
%FSLAX34Y34*%
G01*
G70*
G90*
G04 APERTURE LIST*
%ADD10C,0.00590551*%
%ADD11C,0.055*%
%ADD12C,0.0629921*%
%ADD13R,0.0472441X0.177165*%
%ADD14R,0.0472441X0.0472441*%
%ADD15R,0.11811X0.0472441*%
%ADD16C,0.0787402*%
%ADD17C,0.137795*%
%ADD18C,0.035*%
%ADD19C,0.01*%
G04 APERTURE END LIST*
G54D10*
G54D11*
X112500Y-34100D03*
X112500Y-30600D03*
G54D12*
X123500Y-28100D03*
X122500Y-28100D03*
X123500Y-22100D03*
X121500Y-28100D03*
X120500Y-28100D03*
X119500Y-28100D03*
X118500Y-28100D03*
X117500Y-28100D03*
X116500Y-28100D03*
X115500Y-28100D03*
X114500Y-28100D03*
X113500Y-28100D03*
X112500Y-28100D03*
X122500Y-22100D03*
X121500Y-22100D03*
X120500Y-22100D03*
X119500Y-22100D03*
X118500Y-22100D03*
X117500Y-22100D03*
X116500Y-22100D03*
X115500Y-22100D03*
X114500Y-22100D03*
X113500Y-22100D03*
X112500Y-22100D03*
X123100Y-31800D03*
X126100Y-31800D03*
G54D13*
X118450Y-17950D03*
X119450Y-17950D03*
X117450Y-17950D03*
X116450Y-17950D03*
X120450Y-17950D03*
X121450Y-17950D03*
G54D14*
X114750Y-34150D03*
X115650Y-34150D03*
X116550Y-34150D03*
G54D15*
X115650Y-31550D03*
G54D12*
X111600Y-36150D03*
X111600Y-37150D03*
X111600Y-38150D03*
X122750Y-35550D03*
X122750Y-36550D03*
X122750Y-37550D03*
X125950Y-18550D03*
X125950Y-20350D03*
G54D16*
X124950Y-20900D03*
X125000Y-17950D03*
G54D12*
X112000Y-20350D03*
X112000Y-18550D03*
G54D16*
X113000Y-18000D03*
X112950Y-20950D03*
G54D12*
X118000Y-40750D03*
X119000Y-40750D03*
X120000Y-40750D03*
X119900Y-36850D03*
X118900Y-36850D03*
X117900Y-36850D03*
G54D17*
X122950Y-19450D03*
X115000Y-19450D03*
X125850Y-40350D03*
X112100Y-40350D03*
G54D12*
X126200Y-27300D03*
X126200Y-28300D03*
X126200Y-29300D03*
X126200Y-26300D03*
X119400Y-38500D03*
X118600Y-38500D03*
X115450Y-29600D03*
X116450Y-29600D03*
X117450Y-29600D03*
X118450Y-29600D03*
G54D11*
X120800Y-33000D03*
X120800Y-29500D03*
G54D18*
X116700Y-19750D03*
X114000Y-33900D03*
G54D19*
X118000Y-40750D02*
X118000Y-39100D01*
X118000Y-39100D02*
X118600Y-38500D01*
X120450Y-17950D02*
X120450Y-18950D01*
X120450Y-21200D02*
X120000Y-21650D01*
X120000Y-21650D02*
X120000Y-23300D01*
X120000Y-23300D02*
X121250Y-24550D01*
X121250Y-24550D02*
X125700Y-24550D01*
X125700Y-24550D02*
X127050Y-25900D01*
X127050Y-25900D02*
X127050Y-27350D01*
X127050Y-27350D02*
X126600Y-27800D01*
X126600Y-27800D02*
X125100Y-27800D01*
X125100Y-27800D02*
X124250Y-26950D01*
X124250Y-26950D02*
X122000Y-26950D01*
X122000Y-26950D02*
X121500Y-27450D01*
X120450Y-18950D02*
X120450Y-21200D01*
X121500Y-28100D02*
X121500Y-27450D01*
X121500Y-27450D02*
X121500Y-28100D01*
X112000Y-20350D02*
X112000Y-20100D01*
X122000Y-21600D02*
X121500Y-22100D01*
X122000Y-17000D02*
X122000Y-21600D01*
X121800Y-16800D02*
X122000Y-17000D01*
X115300Y-16800D02*
X121800Y-16800D01*
X112000Y-20100D02*
X115300Y-16800D01*
X121450Y-17950D02*
X121450Y-18950D01*
X121450Y-21050D02*
X121000Y-21500D01*
X121000Y-21500D02*
X121000Y-22850D01*
X121000Y-22850D02*
X121550Y-23400D01*
X121550Y-23400D02*
X122200Y-23400D01*
X122200Y-23400D02*
X123500Y-22100D01*
X121450Y-18950D02*
X121450Y-21050D01*
X118450Y-17950D02*
X118450Y-18950D01*
X118450Y-20350D02*
X117000Y-21800D01*
X117000Y-21800D02*
X117000Y-25450D01*
X117000Y-25450D02*
X115000Y-27450D01*
X115000Y-27450D02*
X115000Y-29200D01*
X115000Y-29200D02*
X114800Y-29400D01*
X114800Y-29400D02*
X114800Y-30000D01*
X114800Y-30000D02*
X115100Y-30300D01*
X115100Y-30300D02*
X115750Y-30300D01*
X115750Y-30300D02*
X116450Y-29600D01*
X118450Y-18950D02*
X118450Y-20350D01*
X117500Y-28100D02*
X117500Y-28550D01*
X117500Y-28550D02*
X116450Y-29600D01*
X126200Y-26300D02*
X119300Y-26300D01*
X119300Y-26300D02*
X117500Y-28100D01*
X119450Y-17950D02*
X119450Y-18950D01*
X119450Y-21050D02*
X119000Y-21500D01*
X119000Y-21500D02*
X119000Y-24400D01*
X119000Y-24400D02*
X119650Y-25050D01*
X119450Y-18950D02*
X119450Y-21050D01*
X126200Y-27300D02*
X126200Y-27200D01*
X126200Y-27200D02*
X126800Y-26600D01*
X126800Y-26600D02*
X126800Y-26000D01*
X125850Y-25050D02*
X119650Y-25050D01*
X126800Y-26000D02*
X125850Y-25050D01*
X116500Y-28100D02*
X116500Y-28550D01*
X116500Y-28550D02*
X115450Y-29600D01*
X119550Y-25050D02*
X116500Y-28100D01*
X119650Y-25050D02*
X119550Y-25050D01*
X125950Y-18550D02*
X125500Y-18550D01*
X122500Y-21550D02*
X122500Y-22100D01*
X125500Y-18550D02*
X122500Y-21550D01*
X113550Y-30650D02*
X112500Y-29600D01*
X113550Y-34300D02*
X113550Y-30650D01*
X114150Y-34900D02*
X113550Y-34300D01*
X116400Y-34900D02*
X114150Y-34900D01*
X112500Y-30600D02*
X112500Y-29600D01*
X112500Y-29600D02*
X111600Y-28700D01*
X112500Y-30600D02*
X112500Y-32900D01*
X112500Y-32900D02*
X111700Y-33700D01*
X116550Y-34750D02*
X116400Y-34900D01*
X111600Y-28700D02*
X111600Y-24300D01*
X111700Y-33700D02*
X111700Y-34450D01*
X111600Y-34550D02*
X111700Y-34450D01*
X111600Y-24300D02*
X112750Y-23150D01*
X111700Y-34450D02*
X114900Y-37650D01*
X112750Y-23150D02*
X114450Y-23150D01*
X114900Y-37650D02*
X119100Y-37650D01*
X117450Y-17950D02*
X117450Y-18950D01*
X117450Y-20150D02*
X115500Y-22100D01*
X117450Y-18950D02*
X117450Y-20150D01*
X111600Y-36150D02*
X111600Y-34550D01*
X122750Y-35550D02*
X122500Y-35550D01*
X120400Y-37650D02*
X119100Y-37650D01*
X122500Y-35550D02*
X120400Y-37650D01*
X116550Y-34150D02*
X116550Y-34750D01*
X114450Y-23150D02*
X115500Y-22100D01*
X119100Y-37650D02*
X119900Y-36850D01*
X123100Y-31800D02*
X120800Y-29500D01*
X126100Y-31800D02*
X126100Y-30700D01*
X126100Y-30700D02*
X123500Y-28100D01*
X119000Y-40750D02*
X119000Y-40850D01*
X112750Y-38150D02*
X111600Y-38150D01*
X116050Y-41450D02*
X112750Y-38150D01*
X118400Y-41450D02*
X116050Y-41450D01*
X119000Y-40850D02*
X118400Y-41450D01*
X122750Y-37550D02*
X122200Y-37550D01*
X122200Y-37550D02*
X119000Y-40750D01*
X126200Y-29300D02*
X126000Y-29300D01*
X126000Y-29300D02*
X124000Y-27300D01*
X124000Y-27300D02*
X122400Y-27300D01*
X122400Y-27300D02*
X122000Y-27700D01*
X119100Y-29600D02*
X118450Y-29600D01*
X120000Y-28700D02*
X119100Y-29600D01*
X121650Y-28700D02*
X120000Y-28700D01*
X122000Y-28350D02*
X121650Y-28700D01*
X122000Y-27700D02*
X122000Y-28350D01*
X115650Y-34150D02*
X115650Y-33100D01*
X118450Y-30300D02*
X118450Y-29600D01*
X115650Y-33100D02*
X118450Y-30300D01*
X122500Y-28100D02*
X122500Y-28650D01*
X119900Y-34850D02*
X117900Y-36850D01*
X119900Y-29600D02*
X119900Y-34850D01*
X120550Y-28950D02*
X119900Y-29600D01*
X122200Y-28950D02*
X120550Y-28950D01*
X122500Y-28650D02*
X122200Y-28950D01*
X112500Y-34100D02*
X112500Y-34600D01*
X114750Y-36850D02*
X117900Y-36850D01*
X112500Y-34600D02*
X114750Y-36850D01*
X116450Y-17950D02*
X116450Y-19500D01*
X116450Y-19500D02*
X116700Y-19750D01*
X114750Y-34150D02*
X114250Y-34150D01*
X114250Y-34150D02*
X114000Y-33900D01*
M02*
