G04 (created by PCBNEW (22-Jun-2014 BZR 4027)-stable) date Tue 27 Sep 2016 11:43:09 BST*
%MOIN*%
G04 Gerber Fmt 3.4, Leading zero omitted, Abs format*
%FSLAX34Y34*%
G01*
G70*
G90*
G04 APERTURE LIST*
%ADD10C,0.00590551*%
%ADD11C,0.055*%
%ADD12C,0.0629921*%
%ADD13R,0.0472441X0.177165*%
%ADD14R,0.0472441X0.0472441*%
%ADD15R,0.11811X0.0472441*%
%ADD16C,0.0787402*%
%ADD17C,0.137795*%
G04 APERTURE END LIST*
G54D10*
G54D11*
X112500Y-34100D03*
X112500Y-30600D03*
X120800Y-33000D03*
X120800Y-29500D03*
G54D12*
X123500Y-28100D03*
X122500Y-28100D03*
X123500Y-22100D03*
X121500Y-28100D03*
X120500Y-28100D03*
X119500Y-28100D03*
X118500Y-28100D03*
X117500Y-28100D03*
X116500Y-28100D03*
X115500Y-28100D03*
X114500Y-28100D03*
X113500Y-28100D03*
X112500Y-28100D03*
X122500Y-22100D03*
X121500Y-22100D03*
X120500Y-22100D03*
X119500Y-22100D03*
X118500Y-22100D03*
X117500Y-22100D03*
X116500Y-22100D03*
X115500Y-22100D03*
X114500Y-22100D03*
X113500Y-22100D03*
X112500Y-22100D03*
X123100Y-31800D03*
X126100Y-31800D03*
X115450Y-29600D03*
X116450Y-29600D03*
X117450Y-29600D03*
X118450Y-29600D03*
G54D13*
X118450Y-17950D03*
X119450Y-17950D03*
X117450Y-17950D03*
X116450Y-17950D03*
X120450Y-17950D03*
X121450Y-17950D03*
G54D14*
X114750Y-34150D03*
X115650Y-34150D03*
X116550Y-34150D03*
G54D15*
X115650Y-31550D03*
G54D12*
X111600Y-36150D03*
X111600Y-37150D03*
X111600Y-38150D03*
X122750Y-35550D03*
X122750Y-36550D03*
X122750Y-37550D03*
X125950Y-18550D03*
X125950Y-20350D03*
G54D16*
X124950Y-20900D03*
X125000Y-17950D03*
G54D12*
X112000Y-20350D03*
X112000Y-18550D03*
G54D16*
X113000Y-18000D03*
X112950Y-20950D03*
G54D12*
X118000Y-40750D03*
X119000Y-40750D03*
X120000Y-40750D03*
X119900Y-36850D03*
X118900Y-36850D03*
X117900Y-36850D03*
G54D17*
X122950Y-19450D03*
X115000Y-19450D03*
X125850Y-40350D03*
X112100Y-40350D03*
G54D12*
X126200Y-27300D03*
X126200Y-28300D03*
X126200Y-29300D03*
X126200Y-26300D03*
X119400Y-38500D03*
X118600Y-38500D03*
M02*
