G04 (created by PCBNEW (22-Jun-2014 BZR 4027)-stable) date Mon 17 Oct 2016 14:56:04 BST*
%MOIN*%
G04 Gerber Fmt 3.4, Leading zero omitted, Abs format*
%FSLAX34Y34*%
G01*
G70*
G90*
G04 APERTURE LIST*
%ADD10C,0.00590551*%
%ADD11C,0.005*%
%ADD12C,0.006*%
G04 APERTURE END LIST*
G54D10*
G54D11*
X112250Y-33850D02*
X113000Y-33850D01*
X113000Y-33850D02*
X113000Y-30850D01*
X113000Y-30850D02*
X112000Y-30850D01*
X112000Y-30850D02*
X112000Y-33850D01*
X112000Y-33850D02*
X112250Y-33850D01*
X112500Y-34100D02*
X112500Y-33850D01*
X112500Y-30850D02*
X112500Y-30600D01*
X112250Y-33850D02*
X112000Y-33600D01*
G54D10*
X110950Y-25700D02*
X111500Y-25700D01*
X111500Y-25700D02*
X111500Y-24500D01*
X111500Y-24500D02*
X110950Y-24500D01*
X110950Y-21500D02*
X110950Y-21450D01*
X110950Y-21450D02*
X124150Y-21450D01*
X124150Y-21450D02*
X124150Y-28750D01*
X124150Y-28750D02*
X110950Y-28750D01*
X110950Y-28750D02*
X110950Y-21500D01*
X126950Y-31800D02*
G75*
G03X126950Y-31800I-2350J0D01*
G74*
G01*
X114350Y-32250D02*
X116950Y-32250D01*
X116950Y-32250D02*
X116950Y-33500D01*
X116950Y-33500D02*
X114350Y-33500D01*
X114350Y-33500D02*
X114350Y-32250D01*
X110950Y-35600D02*
X114950Y-35600D01*
X114950Y-35600D02*
X114950Y-38700D01*
X114950Y-38700D02*
X110950Y-38700D01*
X110950Y-38700D02*
X110950Y-35600D01*
X122100Y-34550D02*
X127000Y-34550D01*
X127000Y-34550D02*
X127000Y-38550D01*
X127000Y-38550D02*
X122100Y-38550D01*
X122100Y-38550D02*
X122100Y-34550D01*
X127000Y-18750D02*
X128750Y-18750D01*
X128750Y-18750D02*
X128750Y-20150D01*
X128750Y-20150D02*
X127000Y-20150D01*
X124400Y-19450D02*
X124400Y-17950D01*
X124400Y-17950D02*
X127000Y-17950D01*
X127000Y-17950D02*
X127000Y-20950D01*
X127000Y-20950D02*
X124400Y-20950D01*
X124400Y-20950D02*
X124400Y-19450D01*
X110950Y-20150D02*
X109200Y-20150D01*
X109200Y-20150D02*
X109200Y-18750D01*
X109200Y-18750D02*
X110950Y-18750D01*
X113550Y-19450D02*
X113550Y-20950D01*
X113550Y-20950D02*
X110950Y-20950D01*
X110950Y-20950D02*
X110950Y-17950D01*
X110950Y-17950D02*
X113550Y-17950D01*
X113550Y-17950D02*
X113550Y-19450D01*
X117350Y-40000D02*
X120650Y-40000D01*
X120650Y-40000D02*
X120650Y-41500D01*
X120650Y-41500D02*
X117350Y-41500D01*
X117350Y-41500D02*
X117350Y-40000D01*
X118100Y-35600D02*
X117900Y-36350D01*
X119700Y-35600D02*
X119900Y-36350D01*
X118900Y-35600D02*
X118900Y-36400D01*
X118100Y-35600D02*
X118100Y-34300D01*
X118100Y-34300D02*
X119700Y-34300D01*
X119700Y-34300D02*
X119700Y-35600D01*
X118100Y-35600D02*
X119700Y-35600D01*
X124150Y-19450D02*
G75*
G03X124150Y-19450I-1200J0D01*
G74*
G01*
X116200Y-19450D02*
G75*
G03X116200Y-19450I-1200J0D01*
G74*
G01*
X127050Y-40350D02*
G75*
G03X127050Y-40350I-1200J0D01*
G74*
G01*
X113300Y-40350D02*
G75*
G03X113300Y-40350I-1200J0D01*
G74*
G01*
X127000Y-21450D02*
X110950Y-21450D01*
X110950Y-21450D02*
X110950Y-34150D01*
X110950Y-34150D02*
X127000Y-34150D01*
X127000Y-34150D02*
X127000Y-21450D01*
X119250Y-37850D02*
X119250Y-38050D01*
X119250Y-38050D02*
X118750Y-38050D01*
X118750Y-38050D02*
X118750Y-37850D01*
X120150Y-37850D02*
X117850Y-37850D01*
X120150Y-39750D02*
X117850Y-39750D01*
X120150Y-39750D02*
X120150Y-37850D01*
X117850Y-39750D02*
X117850Y-37850D01*
X118950Y-29100D02*
X118950Y-35250D01*
X118950Y-35250D02*
X110950Y-35250D01*
X110950Y-35250D02*
X110950Y-29100D01*
X118950Y-29100D02*
X110950Y-29100D01*
G54D11*
X120550Y-32750D02*
X121300Y-32750D01*
X121300Y-32750D02*
X121300Y-29750D01*
X121300Y-29750D02*
X120300Y-29750D01*
X120300Y-29750D02*
X120300Y-32750D01*
X120300Y-32750D02*
X120550Y-32750D01*
X120800Y-33000D02*
X120800Y-32750D01*
X120800Y-29750D02*
X120800Y-29500D01*
X120550Y-32750D02*
X120300Y-32500D01*
G54D12*
X112702Y-33397D02*
X112702Y-33626D01*
X112702Y-33511D02*
X112202Y-33511D01*
X112273Y-33549D01*
X112321Y-33588D01*
X112345Y-33626D01*
X112202Y-33149D02*
X112202Y-33111D01*
X112226Y-33073D01*
X112250Y-33054D01*
X112297Y-33035D01*
X112392Y-33016D01*
X112511Y-33016D01*
X112607Y-33035D01*
X112654Y-33054D01*
X112678Y-33073D01*
X112702Y-33111D01*
X112702Y-33149D01*
X112678Y-33188D01*
X112654Y-33207D01*
X112607Y-33226D01*
X112511Y-33245D01*
X112392Y-33245D01*
X112297Y-33226D01*
X112250Y-33207D01*
X112226Y-33188D01*
X112202Y-33149D01*
X112702Y-32845D02*
X112202Y-32845D01*
X112511Y-32807D02*
X112702Y-32692D01*
X112369Y-32692D02*
X112559Y-32845D01*
X112202Y-32140D02*
X112202Y-32064D01*
X112226Y-32026D01*
X112273Y-31988D01*
X112369Y-31969D01*
X112535Y-31969D01*
X112630Y-31988D01*
X112678Y-32026D01*
X112702Y-32064D01*
X112702Y-32140D01*
X112678Y-32178D01*
X112630Y-32216D01*
X112535Y-32235D01*
X112369Y-32235D01*
X112273Y-32216D01*
X112226Y-32178D01*
X112202Y-32140D01*
X112702Y-31797D02*
X112202Y-31797D01*
X112702Y-31626D02*
X112440Y-31626D01*
X112392Y-31645D01*
X112369Y-31683D01*
X112369Y-31740D01*
X112392Y-31778D01*
X112416Y-31797D01*
X112702Y-31435D02*
X112369Y-31435D01*
X112416Y-31435D02*
X112392Y-31416D01*
X112369Y-31378D01*
X112369Y-31321D01*
X112392Y-31283D01*
X112440Y-31264D01*
X112702Y-31264D01*
X112440Y-31264D02*
X112392Y-31245D01*
X112369Y-31207D01*
X112369Y-31150D01*
X112392Y-31111D01*
X112440Y-31092D01*
X112702Y-31092D01*
G54D10*
X114531Y-25146D02*
X114719Y-25146D01*
X114494Y-25259D02*
X114625Y-24865D01*
X114756Y-25259D01*
X115112Y-25259D02*
X114981Y-25071D01*
X114887Y-25259D02*
X114887Y-24865D01*
X115037Y-24865D01*
X115075Y-24884D01*
X115094Y-24903D01*
X115112Y-24940D01*
X115112Y-24996D01*
X115094Y-25034D01*
X115075Y-25053D01*
X115037Y-25071D01*
X114887Y-25071D01*
X115281Y-25259D02*
X115281Y-24865D01*
X115375Y-24865D01*
X115431Y-24884D01*
X115469Y-24921D01*
X115487Y-24959D01*
X115506Y-25034D01*
X115506Y-25090D01*
X115487Y-25165D01*
X115469Y-25203D01*
X115431Y-25240D01*
X115375Y-25259D01*
X115281Y-25259D01*
X115675Y-24865D02*
X115675Y-25184D01*
X115693Y-25221D01*
X115712Y-25240D01*
X115750Y-25259D01*
X115825Y-25259D01*
X115862Y-25240D01*
X115881Y-25221D01*
X115900Y-25184D01*
X115900Y-24865D01*
X116087Y-25259D02*
X116087Y-24865D01*
X116275Y-25259D02*
X116275Y-24865D01*
X116500Y-25259D01*
X116500Y-24865D01*
X116762Y-24865D02*
X116837Y-24865D01*
X116875Y-24884D01*
X116912Y-24921D01*
X116931Y-24996D01*
X116931Y-25128D01*
X116912Y-25203D01*
X116875Y-25240D01*
X116837Y-25259D01*
X116762Y-25259D01*
X116725Y-25240D01*
X116687Y-25203D01*
X116668Y-25128D01*
X116668Y-24996D01*
X116687Y-24921D01*
X116725Y-24884D01*
X116762Y-24865D01*
X117006Y-25296D02*
X117306Y-25296D01*
X117400Y-25259D02*
X117400Y-24865D01*
X117550Y-24865D01*
X117587Y-24884D01*
X117606Y-24903D01*
X117624Y-24940D01*
X117624Y-24996D01*
X117606Y-25034D01*
X117587Y-25053D01*
X117550Y-25071D01*
X117400Y-25071D01*
X118018Y-25259D02*
X117887Y-25071D01*
X117793Y-25259D02*
X117793Y-24865D01*
X117943Y-24865D01*
X117981Y-24884D01*
X117999Y-24903D01*
X118018Y-24940D01*
X118018Y-24996D01*
X117999Y-25034D01*
X117981Y-25053D01*
X117943Y-25071D01*
X117793Y-25071D01*
X118262Y-24865D02*
X118337Y-24865D01*
X118374Y-24884D01*
X118412Y-24921D01*
X118431Y-24996D01*
X118431Y-25128D01*
X118412Y-25203D01*
X118374Y-25240D01*
X118337Y-25259D01*
X118262Y-25259D01*
X118224Y-25240D01*
X118187Y-25203D01*
X118168Y-25128D01*
X118168Y-24996D01*
X118187Y-24921D01*
X118224Y-24884D01*
X118262Y-24865D01*
X118506Y-25296D02*
X118806Y-25296D01*
X118899Y-25259D02*
X118899Y-24865D01*
X119031Y-25146D01*
X119162Y-24865D01*
X119162Y-25259D01*
X119349Y-25259D02*
X119349Y-24865D01*
X119762Y-25221D02*
X119743Y-25240D01*
X119687Y-25259D01*
X119649Y-25259D01*
X119593Y-25240D01*
X119555Y-25203D01*
X119537Y-25165D01*
X119518Y-25090D01*
X119518Y-25034D01*
X119537Y-24959D01*
X119555Y-24921D01*
X119593Y-24884D01*
X119649Y-24865D01*
X119687Y-24865D01*
X119743Y-24884D01*
X119762Y-24903D01*
X120155Y-25259D02*
X120024Y-25071D01*
X119930Y-25259D02*
X119930Y-24865D01*
X120080Y-24865D01*
X120118Y-24884D01*
X120137Y-24903D01*
X120155Y-24940D01*
X120155Y-24996D01*
X120137Y-25034D01*
X120118Y-25053D01*
X120080Y-25071D01*
X119930Y-25071D01*
X120399Y-24865D02*
X120474Y-24865D01*
X120512Y-24884D01*
X120549Y-24921D01*
X120568Y-24996D01*
X120568Y-25128D01*
X120549Y-25203D01*
X120512Y-25240D01*
X120474Y-25259D01*
X120399Y-25259D01*
X120362Y-25240D01*
X120324Y-25203D01*
X120305Y-25128D01*
X120305Y-24996D01*
X120324Y-24921D01*
X120362Y-24884D01*
X120399Y-24865D01*
X123372Y-31040D02*
X123428Y-31059D01*
X123522Y-31059D01*
X123559Y-31040D01*
X123578Y-31021D01*
X123597Y-30984D01*
X123597Y-30946D01*
X123578Y-30909D01*
X123559Y-30890D01*
X123522Y-30871D01*
X123447Y-30853D01*
X123409Y-30834D01*
X123390Y-30815D01*
X123372Y-30778D01*
X123372Y-30740D01*
X123390Y-30703D01*
X123409Y-30684D01*
X123447Y-30665D01*
X123540Y-30665D01*
X123597Y-30684D01*
X123765Y-31059D02*
X123765Y-30665D01*
X123915Y-30665D01*
X123953Y-30684D01*
X123971Y-30703D01*
X123990Y-30740D01*
X123990Y-30796D01*
X123971Y-30834D01*
X123953Y-30853D01*
X123915Y-30871D01*
X123765Y-30871D01*
X124159Y-30853D02*
X124290Y-30853D01*
X124346Y-31059D02*
X124159Y-31059D01*
X124159Y-30665D01*
X124346Y-30665D01*
X124496Y-30946D02*
X124684Y-30946D01*
X124459Y-31059D02*
X124590Y-30665D01*
X124721Y-31059D01*
X124853Y-31059D02*
X124853Y-30665D01*
X125078Y-31059D02*
X124909Y-30834D01*
X125078Y-30665D02*
X124853Y-30890D01*
X125246Y-30853D02*
X125378Y-30853D01*
X125434Y-31059D02*
X125246Y-31059D01*
X125246Y-30665D01*
X125434Y-30665D01*
X125827Y-31059D02*
X125696Y-30871D01*
X125602Y-31059D02*
X125602Y-30665D01*
X125752Y-30665D01*
X125790Y-30684D01*
X125809Y-30703D01*
X125827Y-30740D01*
X125827Y-30796D01*
X125809Y-30834D01*
X125790Y-30853D01*
X125752Y-30871D01*
X125602Y-30871D01*
X122950Y-32509D02*
X123249Y-32509D01*
X125950Y-32509D02*
X126249Y-32509D01*
X126100Y-32659D02*
X126100Y-32359D01*
X117103Y-19403D02*
X117234Y-19403D01*
X117290Y-19609D02*
X117103Y-19609D01*
X117103Y-19215D01*
X117290Y-19215D01*
X117647Y-19609D02*
X117459Y-19609D01*
X117459Y-19215D01*
X117778Y-19403D02*
X117909Y-19403D01*
X117965Y-19609D02*
X117778Y-19609D01*
X117778Y-19215D01*
X117965Y-19215D01*
X118359Y-19571D02*
X118340Y-19590D01*
X118284Y-19609D01*
X118246Y-19609D01*
X118190Y-19590D01*
X118153Y-19553D01*
X118134Y-19515D01*
X118115Y-19440D01*
X118115Y-19384D01*
X118134Y-19309D01*
X118153Y-19271D01*
X118190Y-19234D01*
X118246Y-19215D01*
X118284Y-19215D01*
X118340Y-19234D01*
X118359Y-19253D01*
X118471Y-19215D02*
X118696Y-19215D01*
X118584Y-19609D02*
X118584Y-19215D01*
X119053Y-19609D02*
X118921Y-19421D01*
X118828Y-19609D02*
X118828Y-19215D01*
X118978Y-19215D01*
X119015Y-19234D01*
X119034Y-19253D01*
X119053Y-19290D01*
X119053Y-19346D01*
X119034Y-19384D01*
X119015Y-19403D01*
X118978Y-19421D01*
X118828Y-19421D01*
X119296Y-19215D02*
X119371Y-19215D01*
X119409Y-19234D01*
X119446Y-19271D01*
X119465Y-19346D01*
X119465Y-19478D01*
X119446Y-19553D01*
X119409Y-19590D01*
X119371Y-19609D01*
X119296Y-19609D01*
X119259Y-19590D01*
X119221Y-19553D01*
X119203Y-19478D01*
X119203Y-19346D01*
X119221Y-19271D01*
X119259Y-19234D01*
X119296Y-19215D01*
X119540Y-19646D02*
X119840Y-19646D01*
X119934Y-19609D02*
X119934Y-19215D01*
X119934Y-19403D02*
X120159Y-19403D01*
X120159Y-19609D02*
X120159Y-19215D01*
X120327Y-19496D02*
X120515Y-19496D01*
X120290Y-19609D02*
X120421Y-19215D01*
X120552Y-19609D01*
X120627Y-19215D02*
X120852Y-19215D01*
X120740Y-19609D02*
X120740Y-19215D01*
X114197Y-32665D02*
X114440Y-32665D01*
X114309Y-32815D01*
X114365Y-32815D01*
X114403Y-32834D01*
X114422Y-32853D01*
X114440Y-32890D01*
X114440Y-32984D01*
X114422Y-33021D01*
X114403Y-33040D01*
X114365Y-33059D01*
X114253Y-33059D01*
X114215Y-33040D01*
X114197Y-33021D01*
X114609Y-33021D02*
X114628Y-33040D01*
X114609Y-33059D01*
X114590Y-33040D01*
X114609Y-33021D01*
X114609Y-33059D01*
X114759Y-32665D02*
X115003Y-32665D01*
X114871Y-32815D01*
X114928Y-32815D01*
X114965Y-32834D01*
X114984Y-32853D01*
X115003Y-32890D01*
X115003Y-32984D01*
X114984Y-33021D01*
X114965Y-33040D01*
X114928Y-33059D01*
X114815Y-33059D01*
X114778Y-33040D01*
X114759Y-33021D01*
X115078Y-33096D02*
X115378Y-33096D01*
X115415Y-32665D02*
X115546Y-33059D01*
X115678Y-32665D01*
X115715Y-33096D02*
X116015Y-33096D01*
X116334Y-33059D02*
X116203Y-32871D01*
X116109Y-33059D02*
X116109Y-32665D01*
X116259Y-32665D01*
X116296Y-32684D01*
X116315Y-32703D01*
X116334Y-32740D01*
X116334Y-32796D01*
X116315Y-32834D01*
X116296Y-32853D01*
X116259Y-32871D01*
X116109Y-32871D01*
X116503Y-32853D02*
X116634Y-32853D01*
X116690Y-33059D02*
X116503Y-33059D01*
X116503Y-32665D01*
X116690Y-32665D01*
X117065Y-32684D02*
X117027Y-32665D01*
X116971Y-32665D01*
X116915Y-32684D01*
X116877Y-32721D01*
X116859Y-32759D01*
X116840Y-32834D01*
X116840Y-32890D01*
X116859Y-32965D01*
X116877Y-33003D01*
X116915Y-33040D01*
X116971Y-33059D01*
X117009Y-33059D01*
X117065Y-33040D01*
X117084Y-33021D01*
X117084Y-32890D01*
X117009Y-32890D01*
X112259Y-37409D02*
X112259Y-37015D01*
X112353Y-37015D01*
X112409Y-37034D01*
X112447Y-37071D01*
X112465Y-37109D01*
X112484Y-37184D01*
X112484Y-37240D01*
X112465Y-37315D01*
X112447Y-37353D01*
X112409Y-37390D01*
X112353Y-37409D01*
X112259Y-37409D01*
X112878Y-37371D02*
X112859Y-37390D01*
X112803Y-37409D01*
X112765Y-37409D01*
X112709Y-37390D01*
X112672Y-37353D01*
X112653Y-37315D01*
X112634Y-37240D01*
X112634Y-37184D01*
X112653Y-37109D01*
X112672Y-37071D01*
X112709Y-37034D01*
X112765Y-37015D01*
X112803Y-37015D01*
X112859Y-37034D01*
X112878Y-37053D01*
X112953Y-37446D02*
X113253Y-37446D01*
X113346Y-37409D02*
X113346Y-37015D01*
X113440Y-37015D01*
X113496Y-37034D01*
X113534Y-37071D01*
X113553Y-37109D01*
X113571Y-37184D01*
X113571Y-37240D01*
X113553Y-37315D01*
X113534Y-37353D01*
X113496Y-37390D01*
X113440Y-37409D01*
X113346Y-37409D01*
X113965Y-37371D02*
X113946Y-37390D01*
X113890Y-37409D01*
X113853Y-37409D01*
X113796Y-37390D01*
X113759Y-37353D01*
X113740Y-37315D01*
X113721Y-37240D01*
X113721Y-37184D01*
X113740Y-37109D01*
X113759Y-37071D01*
X113796Y-37034D01*
X113853Y-37015D01*
X113890Y-37015D01*
X113946Y-37034D01*
X113965Y-37053D01*
X114040Y-37446D02*
X114340Y-37446D01*
X114565Y-37203D02*
X114621Y-37221D01*
X114640Y-37240D01*
X114659Y-37278D01*
X114659Y-37334D01*
X114640Y-37371D01*
X114621Y-37390D01*
X114584Y-37409D01*
X114434Y-37409D01*
X114434Y-37015D01*
X114565Y-37015D01*
X114603Y-37034D01*
X114621Y-37053D01*
X114640Y-37090D01*
X114640Y-37128D01*
X114621Y-37165D01*
X114603Y-37184D01*
X114565Y-37203D01*
X114434Y-37203D01*
X114903Y-37015D02*
X114978Y-37015D01*
X115015Y-37034D01*
X115053Y-37071D01*
X115071Y-37146D01*
X115071Y-37278D01*
X115053Y-37353D01*
X115015Y-37390D01*
X114978Y-37409D01*
X114903Y-37409D01*
X114865Y-37390D01*
X114828Y-37353D01*
X114809Y-37278D01*
X114809Y-37146D01*
X114828Y-37071D01*
X114865Y-37034D01*
X114903Y-37015D01*
X115315Y-37015D02*
X115390Y-37015D01*
X115427Y-37034D01*
X115465Y-37071D01*
X115484Y-37146D01*
X115484Y-37278D01*
X115465Y-37353D01*
X115427Y-37390D01*
X115390Y-37409D01*
X115315Y-37409D01*
X115277Y-37390D01*
X115240Y-37353D01*
X115221Y-37278D01*
X115221Y-37146D01*
X115240Y-37071D01*
X115277Y-37034D01*
X115315Y-37015D01*
X115634Y-37390D02*
X115690Y-37409D01*
X115784Y-37409D01*
X115821Y-37390D01*
X115840Y-37371D01*
X115859Y-37334D01*
X115859Y-37296D01*
X115840Y-37259D01*
X115821Y-37240D01*
X115784Y-37221D01*
X115709Y-37203D01*
X115671Y-37184D01*
X115652Y-37165D01*
X115634Y-37128D01*
X115634Y-37090D01*
X115652Y-37053D01*
X115671Y-37034D01*
X115709Y-37015D01*
X115802Y-37015D01*
X115859Y-37034D01*
X115971Y-37015D02*
X116196Y-37015D01*
X116084Y-37409D02*
X116084Y-37015D01*
X122884Y-35009D02*
X122697Y-35009D01*
X122697Y-34615D01*
X123015Y-35009D02*
X123015Y-34615D01*
X123203Y-35009D02*
X123203Y-34615D01*
X123353Y-34615D01*
X123390Y-34634D01*
X123409Y-34653D01*
X123428Y-34690D01*
X123428Y-34746D01*
X123409Y-34784D01*
X123390Y-34803D01*
X123353Y-34821D01*
X123203Y-34821D01*
X123672Y-34615D02*
X123747Y-34615D01*
X123784Y-34634D01*
X123821Y-34671D01*
X123840Y-34746D01*
X123840Y-34878D01*
X123821Y-34953D01*
X123784Y-34990D01*
X123747Y-35009D01*
X123672Y-35009D01*
X123634Y-34990D01*
X123597Y-34953D01*
X123578Y-34878D01*
X123578Y-34746D01*
X123597Y-34671D01*
X123634Y-34634D01*
X123672Y-34615D01*
X123915Y-35046D02*
X124215Y-35046D01*
X124534Y-34971D02*
X124515Y-34990D01*
X124459Y-35009D01*
X124421Y-35009D01*
X124365Y-34990D01*
X124328Y-34953D01*
X124309Y-34915D01*
X124290Y-34840D01*
X124290Y-34784D01*
X124309Y-34709D01*
X124328Y-34671D01*
X124365Y-34634D01*
X124421Y-34615D01*
X124459Y-34615D01*
X124515Y-34634D01*
X124534Y-34653D01*
X124703Y-35009D02*
X124703Y-34615D01*
X124703Y-34803D02*
X124928Y-34803D01*
X124928Y-35009D02*
X124928Y-34615D01*
X125096Y-34896D02*
X125284Y-34896D01*
X125059Y-35009D02*
X125190Y-34615D01*
X125321Y-35009D01*
X125678Y-35009D02*
X125546Y-34821D01*
X125453Y-35009D02*
X125453Y-34615D01*
X125603Y-34615D01*
X125640Y-34634D01*
X125659Y-34653D01*
X125678Y-34690D01*
X125678Y-34746D01*
X125659Y-34784D01*
X125640Y-34803D01*
X125603Y-34821D01*
X125453Y-34821D01*
X126052Y-34634D02*
X126015Y-34615D01*
X125959Y-34615D01*
X125902Y-34634D01*
X125865Y-34671D01*
X125846Y-34709D01*
X125827Y-34784D01*
X125827Y-34840D01*
X125846Y-34915D01*
X125865Y-34953D01*
X125902Y-34990D01*
X125959Y-35009D01*
X125996Y-35009D01*
X126052Y-34990D01*
X126071Y-34971D01*
X126071Y-34840D01*
X125996Y-34840D01*
X126240Y-34803D02*
X126371Y-34803D01*
X126427Y-35009D02*
X126240Y-35009D01*
X126240Y-34615D01*
X126427Y-34615D01*
X126821Y-35009D02*
X126690Y-34821D01*
X126596Y-35009D02*
X126596Y-34615D01*
X126746Y-34615D01*
X126784Y-34634D01*
X126802Y-34653D01*
X126821Y-34690D01*
X126821Y-34746D01*
X126802Y-34784D01*
X126784Y-34803D01*
X126746Y-34821D01*
X126596Y-34821D01*
X118056Y-33946D02*
X118243Y-33946D01*
X118018Y-34059D02*
X118150Y-33665D01*
X118281Y-34059D01*
X118375Y-33665D02*
X118618Y-33665D01*
X118487Y-33815D01*
X118543Y-33815D01*
X118581Y-33834D01*
X118600Y-33853D01*
X118618Y-33890D01*
X118618Y-33984D01*
X118600Y-34021D01*
X118581Y-34040D01*
X118543Y-34059D01*
X118431Y-34059D01*
X118393Y-34040D01*
X118375Y-34021D01*
X118993Y-34059D02*
X118768Y-34059D01*
X118881Y-34059D02*
X118881Y-33665D01*
X118843Y-33721D01*
X118806Y-33759D01*
X118768Y-33778D01*
X119331Y-33796D02*
X119331Y-34059D01*
X119237Y-33646D02*
X119143Y-33928D01*
X119387Y-33928D01*
X119706Y-33796D02*
X119706Y-34059D01*
X119612Y-33646D02*
X119518Y-33928D01*
X119762Y-33928D01*
X115522Y-30759D02*
X115522Y-30365D01*
X115653Y-30646D01*
X115784Y-30365D01*
X115784Y-30759D01*
X115972Y-30759D02*
X115972Y-30365D01*
X116121Y-30365D01*
X116159Y-30384D01*
X116178Y-30403D01*
X116196Y-30440D01*
X116196Y-30496D01*
X116178Y-30534D01*
X116159Y-30553D01*
X116121Y-30571D01*
X115972Y-30571D01*
X116365Y-30365D02*
X116365Y-30684D01*
X116384Y-30721D01*
X116403Y-30740D01*
X116440Y-30759D01*
X116515Y-30759D01*
X116553Y-30740D01*
X116571Y-30721D01*
X116590Y-30684D01*
X116590Y-30365D01*
X116778Y-30609D02*
X117078Y-30609D01*
X117434Y-30365D02*
X117359Y-30365D01*
X117321Y-30384D01*
X117303Y-30403D01*
X117265Y-30459D01*
X117246Y-30534D01*
X117246Y-30684D01*
X117265Y-30721D01*
X117284Y-30740D01*
X117321Y-30759D01*
X117396Y-30759D01*
X117434Y-30740D01*
X117453Y-30721D01*
X117471Y-30684D01*
X117471Y-30590D01*
X117453Y-30553D01*
X117434Y-30534D01*
X117396Y-30515D01*
X117321Y-30515D01*
X117284Y-30534D01*
X117265Y-30553D01*
X117246Y-30590D01*
X117715Y-30365D02*
X117753Y-30365D01*
X117790Y-30384D01*
X117809Y-30403D01*
X117828Y-30440D01*
X117846Y-30515D01*
X117846Y-30609D01*
X117828Y-30684D01*
X117809Y-30721D01*
X117790Y-30740D01*
X117753Y-30759D01*
X117715Y-30759D01*
X117678Y-30740D01*
X117659Y-30721D01*
X117640Y-30684D01*
X117621Y-30609D01*
X117621Y-30515D01*
X117640Y-30440D01*
X117659Y-30403D01*
X117678Y-30384D01*
X117715Y-30365D01*
X118202Y-30365D02*
X118015Y-30365D01*
X117996Y-30553D01*
X118015Y-30534D01*
X118052Y-30515D01*
X118146Y-30515D01*
X118184Y-30534D01*
X118202Y-30553D01*
X118221Y-30590D01*
X118221Y-30684D01*
X118202Y-30721D01*
X118184Y-30740D01*
X118146Y-30759D01*
X118052Y-30759D01*
X118015Y-30740D01*
X117996Y-30721D01*
X118465Y-30365D02*
X118502Y-30365D01*
X118540Y-30384D01*
X118559Y-30403D01*
X118577Y-30440D01*
X118596Y-30515D01*
X118596Y-30609D01*
X118577Y-30684D01*
X118559Y-30721D01*
X118540Y-30740D01*
X118502Y-30759D01*
X118465Y-30759D01*
X118427Y-30740D01*
X118409Y-30721D01*
X118390Y-30684D01*
X118371Y-30609D01*
X118371Y-30515D01*
X118390Y-30440D01*
X118409Y-30403D01*
X118427Y-30384D01*
X118465Y-30365D01*
G54D12*
X120502Y-32602D02*
X120502Y-32354D01*
X120692Y-32488D01*
X120692Y-32430D01*
X120716Y-32392D01*
X120740Y-32373D01*
X120788Y-32354D01*
X120907Y-32354D01*
X120954Y-32373D01*
X120978Y-32392D01*
X121002Y-32430D01*
X121002Y-32545D01*
X120978Y-32583D01*
X120954Y-32602D01*
X120502Y-32221D02*
X120502Y-31973D01*
X120692Y-32107D01*
X120692Y-32050D01*
X120716Y-32011D01*
X120740Y-31992D01*
X120788Y-31973D01*
X120907Y-31973D01*
X120954Y-31992D01*
X120978Y-32011D01*
X121002Y-32050D01*
X121002Y-32164D01*
X120978Y-32202D01*
X120954Y-32221D01*
X120502Y-31726D02*
X120502Y-31688D01*
X120526Y-31650D01*
X120550Y-31630D01*
X120597Y-31611D01*
X120692Y-31592D01*
X120811Y-31592D01*
X120907Y-31611D01*
X120954Y-31630D01*
X120978Y-31650D01*
X121002Y-31688D01*
X121002Y-31726D01*
X120978Y-31764D01*
X120954Y-31783D01*
X120907Y-31802D01*
X120811Y-31821D01*
X120692Y-31821D01*
X120597Y-31802D01*
X120550Y-31783D01*
X120526Y-31764D01*
X120502Y-31726D01*
X120502Y-31040D02*
X120502Y-30964D01*
X120526Y-30926D01*
X120573Y-30888D01*
X120669Y-30869D01*
X120835Y-30869D01*
X120930Y-30888D01*
X120978Y-30926D01*
X121002Y-30964D01*
X121002Y-31040D01*
X120978Y-31078D01*
X120930Y-31116D01*
X120835Y-31135D01*
X120669Y-31135D01*
X120573Y-31116D01*
X120526Y-31078D01*
X120502Y-31040D01*
X121002Y-30697D02*
X120502Y-30697D01*
X120740Y-30697D02*
X120740Y-30469D01*
X121002Y-30469D02*
X120502Y-30469D01*
X121002Y-30278D02*
X120669Y-30278D01*
X120716Y-30278D02*
X120692Y-30259D01*
X120669Y-30221D01*
X120669Y-30164D01*
X120692Y-30126D01*
X120740Y-30107D01*
X121002Y-30107D01*
X120740Y-30107D02*
X120692Y-30088D01*
X120669Y-30050D01*
X120669Y-29992D01*
X120692Y-29954D01*
X120740Y-29935D01*
X121002Y-29935D01*
M02*
