G04 (created by PCBNEW (22-Jun-2014 BZR 4027)-stable) date Thu 10 Nov 2016 11:36:34 GMT*
%MOIN*%
G04 Gerber Fmt 3.4, Leading zero omitted, Abs format*
%FSLAX34Y34*%
G01*
G70*
G90*
G04 APERTURE LIST*
%ADD10C,0.00590551*%
%ADD11C,0.0629921*%
%ADD12R,0.0472441X0.177165*%
%ADD13R,0.0472441X0.0472441*%
%ADD14R,0.11811X0.0472441*%
%ADD15C,0.0787402*%
%ADD16C,0.137795*%
%ADD17C,0.055*%
%ADD18C,0.0708661*%
%ADD19C,0.035*%
%ADD20C,0.01*%
G04 APERTURE END LIST*
G54D10*
G54D11*
X123500Y-28100D03*
X122500Y-28100D03*
X123500Y-22100D03*
X121500Y-28100D03*
X120500Y-28100D03*
X119500Y-28100D03*
X118500Y-28100D03*
X117500Y-28100D03*
X116500Y-28100D03*
X115500Y-28100D03*
X114500Y-28100D03*
X113500Y-28100D03*
X112500Y-28100D03*
X122500Y-22100D03*
X121500Y-22100D03*
X120500Y-22100D03*
X119500Y-22100D03*
X118500Y-22100D03*
X117500Y-22100D03*
X116500Y-22100D03*
X115500Y-22100D03*
X114500Y-22100D03*
X113500Y-22100D03*
X112500Y-22100D03*
X113450Y-37800D03*
X116450Y-37800D03*
G54D12*
X118450Y-17950D03*
X119450Y-17950D03*
X117450Y-17950D03*
X116450Y-17950D03*
X120450Y-17950D03*
X121450Y-17950D03*
G54D13*
X114750Y-34150D03*
X115650Y-34150D03*
X116550Y-34150D03*
G54D14*
X115650Y-31550D03*
G54D11*
X125950Y-18550D03*
X125950Y-20350D03*
G54D15*
X124950Y-20900D03*
X125000Y-17950D03*
G54D11*
X112000Y-20350D03*
X112000Y-18550D03*
G54D15*
X113000Y-18000D03*
X112950Y-20950D03*
G54D11*
X123350Y-40650D03*
X122350Y-40650D03*
X121350Y-40650D03*
X119900Y-36850D03*
X118900Y-36850D03*
X117900Y-36850D03*
G54D16*
X122950Y-19450D03*
X115000Y-19450D03*
X125850Y-40350D03*
X112100Y-40350D03*
G54D11*
X126200Y-27300D03*
X126200Y-28300D03*
X126200Y-29300D03*
X126200Y-26300D03*
X123200Y-38400D03*
X124000Y-38400D03*
X115450Y-29600D03*
X116450Y-29600D03*
X117450Y-29600D03*
X118450Y-29600D03*
G54D17*
X112500Y-34100D03*
X112500Y-30600D03*
X119350Y-40600D03*
X115850Y-40600D03*
G54D18*
X122875Y-34300D03*
X122875Y-31775D03*
X120900Y-35725D03*
X119675Y-33250D03*
G54D19*
X116700Y-19750D03*
X114000Y-33900D03*
G54D20*
X120500Y-28100D02*
X120650Y-28100D01*
X120000Y-18400D02*
X120450Y-17950D01*
X120000Y-23400D02*
X120000Y-18400D01*
X120900Y-24300D02*
X120000Y-23400D01*
X126050Y-24300D02*
X120900Y-24300D01*
X127000Y-25250D02*
X126050Y-24300D01*
X127000Y-27499D02*
X127000Y-25250D01*
X126700Y-27800D02*
X127000Y-27499D01*
X125550Y-27800D02*
X126700Y-27800D01*
X124600Y-26850D02*
X125550Y-27800D01*
X121900Y-26850D02*
X124600Y-26850D01*
X120650Y-28100D02*
X121900Y-26850D01*
X116450Y-17950D02*
X116450Y-19500D01*
X116450Y-19500D02*
X116700Y-19750D01*
X114750Y-34150D02*
X114250Y-34150D01*
X114250Y-34150D02*
X114000Y-33900D01*
X121450Y-17950D02*
X121450Y-18950D01*
X121450Y-21050D02*
X121000Y-21500D01*
X121000Y-21500D02*
X121000Y-22850D01*
X121000Y-22850D02*
X121550Y-23400D01*
X121550Y-23400D02*
X122200Y-23400D01*
X122200Y-23400D02*
X123500Y-22100D01*
X121450Y-18950D02*
X121450Y-21050D01*
X125950Y-18550D02*
X125500Y-18550D01*
X122500Y-21550D02*
X122500Y-22100D01*
X125500Y-18550D02*
X122500Y-21550D01*
X122350Y-40650D02*
X122350Y-39900D01*
X120100Y-37650D02*
X119100Y-37650D01*
X122350Y-39900D02*
X120100Y-37650D01*
X119100Y-37650D02*
X117550Y-37650D01*
X114450Y-23150D02*
X115500Y-22100D01*
X117450Y-17950D02*
X117450Y-18950D01*
X117450Y-20150D02*
X115500Y-22100D01*
X117450Y-18950D02*
X117450Y-20150D01*
X116550Y-34150D02*
X116550Y-34750D01*
X119100Y-37650D02*
X119900Y-36850D01*
X117550Y-37650D02*
X117250Y-37350D01*
X116550Y-34750D02*
X116400Y-34900D01*
X112750Y-23150D02*
X114450Y-23150D01*
X117000Y-36000D02*
X113000Y-36000D01*
X117250Y-36250D02*
X117000Y-36000D01*
X117250Y-37350D02*
X117250Y-36250D01*
X116400Y-34900D02*
X114150Y-34900D01*
X111600Y-24300D02*
X112750Y-23150D01*
X111600Y-34600D02*
X111600Y-28700D01*
X113000Y-36000D02*
X111600Y-34600D01*
X114150Y-34900D02*
X113550Y-34300D01*
X112500Y-29600D02*
X111600Y-28700D01*
X111600Y-28700D02*
X111600Y-24300D01*
X113550Y-30650D02*
X112500Y-29600D01*
X113550Y-34300D02*
X113550Y-30650D01*
X112500Y-30600D02*
X112500Y-29600D01*
X118450Y-17950D02*
X118450Y-18950D01*
X118450Y-20350D02*
X117000Y-21800D01*
X117000Y-21800D02*
X117000Y-25450D01*
X117000Y-25450D02*
X115000Y-27450D01*
X115000Y-27450D02*
X115000Y-29200D01*
X115000Y-29200D02*
X114800Y-29400D01*
X114800Y-29400D02*
X114800Y-30000D01*
X114800Y-30000D02*
X115100Y-30300D01*
X115100Y-30300D02*
X115750Y-30300D01*
X115750Y-30300D02*
X116450Y-29600D01*
X118450Y-18950D02*
X118450Y-20350D01*
X117500Y-28100D02*
X117500Y-28550D01*
X117500Y-28550D02*
X116450Y-29600D01*
X126200Y-26300D02*
X119300Y-26300D01*
X119300Y-26300D02*
X117500Y-28100D01*
X119450Y-17950D02*
X119450Y-18950D01*
X119450Y-21050D02*
X119000Y-21500D01*
X119000Y-21500D02*
X119000Y-24400D01*
X119000Y-24400D02*
X119650Y-25050D01*
X119450Y-18950D02*
X119450Y-21050D01*
X126200Y-27300D02*
X126200Y-27200D01*
X126200Y-27200D02*
X126800Y-26600D01*
X126800Y-26600D02*
X126800Y-26000D01*
X125850Y-25050D02*
X119650Y-25050D01*
X126800Y-26000D02*
X125850Y-25050D01*
X116500Y-28100D02*
X116500Y-28550D01*
X116500Y-28550D02*
X115450Y-29600D01*
X119550Y-25050D02*
X116500Y-28100D01*
X119650Y-25050D02*
X119550Y-25050D01*
X116450Y-37800D02*
X117050Y-37800D01*
X125700Y-30300D02*
X123500Y-28100D01*
X125700Y-38850D02*
X125700Y-30300D01*
X124550Y-40000D02*
X125700Y-38850D01*
X124550Y-40550D02*
X124550Y-40000D01*
X123700Y-41400D02*
X124550Y-40550D01*
X120700Y-41400D02*
X123700Y-41400D01*
X120200Y-40900D02*
X120700Y-41400D01*
X120200Y-40100D02*
X120200Y-40900D01*
X119700Y-39600D02*
X120200Y-40100D01*
X118850Y-39600D02*
X119700Y-39600D01*
X117050Y-37800D02*
X118850Y-39600D01*
X114100Y-35700D02*
X112500Y-34100D01*
X117100Y-35700D02*
X114100Y-35700D01*
X117900Y-36500D02*
X117100Y-35700D01*
X117900Y-36850D02*
X118250Y-36500D01*
X122500Y-28750D02*
X122500Y-28100D01*
X122250Y-29000D02*
X122500Y-28750D01*
X120450Y-29000D02*
X122250Y-29000D01*
X118250Y-31200D02*
X120450Y-29000D01*
X118250Y-36500D02*
X118250Y-31200D01*
X117900Y-36850D02*
X117900Y-36500D01*
X113450Y-37800D02*
X113450Y-38200D01*
X113450Y-38200D02*
X115850Y-40600D01*
X112000Y-20350D02*
X112000Y-20100D01*
X122000Y-21600D02*
X121500Y-22100D01*
X122000Y-17000D02*
X122000Y-21600D01*
X121800Y-16800D02*
X122000Y-17000D01*
X115300Y-16800D02*
X121800Y-16800D01*
X112000Y-20100D02*
X115300Y-16800D01*
X126200Y-29300D02*
X126000Y-29300D01*
X126000Y-29300D02*
X124000Y-27300D01*
X124000Y-27300D02*
X122400Y-27300D01*
X122400Y-27300D02*
X122000Y-27700D01*
X119100Y-29600D02*
X118450Y-29600D01*
X120000Y-28700D02*
X119100Y-29600D01*
X121650Y-28700D02*
X120000Y-28700D01*
X122000Y-28350D02*
X121650Y-28700D01*
X122000Y-27700D02*
X122000Y-28350D01*
X115650Y-34150D02*
X115650Y-33100D01*
X118450Y-30300D02*
X118450Y-29600D01*
X115650Y-33100D02*
X118450Y-30300D01*
X124000Y-38400D02*
X124000Y-37575D01*
X124000Y-37575D02*
X119675Y-33250D01*
X123200Y-38400D02*
X123200Y-38025D01*
X123200Y-38025D02*
X120900Y-35725D01*
X122875Y-31775D02*
X122875Y-32575D01*
X124700Y-39300D02*
X123350Y-40650D01*
X124700Y-34400D02*
X124700Y-39300D01*
X122875Y-32575D02*
X124700Y-34400D01*
M02*
