G04 (created by PCBNEW (22-Jun-2014 BZR 4027)-stable) date Wed 26 Oct 2016 20:07:22 BST*
%MOIN*%
G04 Gerber Fmt 3.4, Leading zero omitted, Abs format*
%FSLAX34Y34*%
G01*
G70*
G90*
G04 APERTURE LIST*
%ADD10C,0.00590551*%
%ADD11C,0.00787402*%
%ADD12C,0.0026*%
%ADD13C,0.004*%
G04 APERTURE END LIST*
G54D10*
G54D11*
X74700Y-56500D02*
X82300Y-56500D01*
X75350Y-55200D02*
G75*
G03X74650Y-55399I-250J-449D01*
G74*
G01*
X76099Y-55200D02*
G75*
G03X75300Y-55200I-399J-399D01*
G74*
G01*
X76799Y-55200D02*
G75*
G03X76100Y-55200I-349J-349D01*
G74*
G01*
X77600Y-55100D02*
G75*
G03X76800Y-55199I-350J-449D01*
G74*
G01*
X78250Y-54850D02*
G75*
G03X77600Y-55099I-200J-449D01*
G74*
G01*
X78999Y-55099D02*
G75*
G03X78249Y-54850I-499J-250D01*
G74*
G01*
X79599Y-54999D02*
G75*
G03X78999Y-55100I-249J-350D01*
G74*
G01*
X80149Y-55249D02*
G75*
G03X79599Y-55000I-399J-150D01*
G74*
G01*
X80749Y-55149D02*
G75*
G03X80149Y-55250I-249J-350D01*
G74*
G01*
X81650Y-55150D02*
G75*
G03X80750Y-55150I-450J-450D01*
G74*
G01*
X82299Y-55399D02*
G75*
G03X81649Y-55150I-449J-200D01*
G74*
G01*
X74150Y-55950D02*
G75*
G03X74700Y-56500I550J0D01*
G74*
G01*
X74700Y-55400D02*
G75*
G03X74150Y-55950I0J-550D01*
G74*
G01*
X82300Y-56500D02*
G75*
G03X82850Y-55950I0J550D01*
G74*
G01*
X82850Y-55950D02*
G75*
G03X82300Y-55400I-550J0D01*
G74*
G01*
G54D12*
X77939Y-46061D02*
X77861Y-46061D01*
X77861Y-46061D02*
X77861Y-46139D01*
X77939Y-46139D02*
X77861Y-46139D01*
X77939Y-46061D02*
X77939Y-46139D01*
X77723Y-45825D02*
X77586Y-45825D01*
X77586Y-45825D02*
X77586Y-45923D01*
X77723Y-45923D02*
X77586Y-45923D01*
X77723Y-45825D02*
X77723Y-45923D01*
X77586Y-45825D02*
X77546Y-45825D01*
X77546Y-45825D02*
X77546Y-46296D01*
X77586Y-46296D02*
X77546Y-46296D01*
X77586Y-45825D02*
X77586Y-46296D01*
X77586Y-46316D02*
X77546Y-46316D01*
X77546Y-46316D02*
X77546Y-46375D01*
X77586Y-46375D02*
X77546Y-46375D01*
X77586Y-46316D02*
X77586Y-46375D01*
X78254Y-45825D02*
X78214Y-45825D01*
X78214Y-45825D02*
X78214Y-46296D01*
X78254Y-46296D02*
X78214Y-46296D01*
X78254Y-45825D02*
X78254Y-46296D01*
X78254Y-46316D02*
X78214Y-46316D01*
X78214Y-46316D02*
X78214Y-46375D01*
X78254Y-46375D02*
X78214Y-46375D01*
X78254Y-46316D02*
X78254Y-46375D01*
X77723Y-45825D02*
X77664Y-45825D01*
X77664Y-45825D02*
X77664Y-45923D01*
X77723Y-45923D02*
X77664Y-45923D01*
X77723Y-45825D02*
X77723Y-45923D01*
G54D13*
X77290Y-45805D02*
X78510Y-45805D01*
X78510Y-45805D02*
X78510Y-46395D01*
X78510Y-46395D02*
X77290Y-46395D01*
X77290Y-46395D02*
X77290Y-45805D01*
X78115Y-45903D02*
G75*
G03X77683Y-45904I-215J-196D01*
G74*
G01*
X78115Y-46296D02*
G75*
G03X78116Y-45904I-215J196D01*
G74*
G01*
X77684Y-46296D02*
G75*
G03X78116Y-46295I215J196D01*
G74*
G01*
X77684Y-45903D02*
G75*
G03X77683Y-46295I215J-196D01*
G74*
G01*
M02*
