G04 (created by PCBNEW (22-Jun-2014 BZR 4027)-stable) date Wed 23 Nov 2016 09:46:48 GMT*
%MOIN*%
G04 Gerber Fmt 3.4, Leading zero omitted, Abs format*
%FSLAX34Y34*%
G01*
G70*
G90*
G04 APERTURE LIST*
%ADD10C,0.00590551*%
%ADD11C,0.00984252*%
%ADD12C,0.005*%
%ADD13C,0.0001*%
G04 APERTURE END LIST*
G54D10*
G54D11*
X80174Y-50553D02*
X80156Y-50534D01*
X80118Y-50515D01*
X80024Y-50515D01*
X79987Y-50534D01*
X79968Y-50553D01*
X79949Y-50590D01*
X79949Y-50628D01*
X79968Y-50684D01*
X80193Y-50909D01*
X79949Y-50909D01*
X79706Y-50515D02*
X79668Y-50515D01*
X79631Y-50534D01*
X79612Y-50553D01*
X79593Y-50590D01*
X79574Y-50665D01*
X79574Y-50759D01*
X79593Y-50834D01*
X79612Y-50871D01*
X79631Y-50890D01*
X79668Y-50909D01*
X79706Y-50909D01*
X79743Y-50890D01*
X79762Y-50871D01*
X79781Y-50834D01*
X79799Y-50759D01*
X79799Y-50665D01*
X79781Y-50590D01*
X79762Y-50553D01*
X79743Y-50534D01*
X79706Y-50515D01*
X79200Y-50909D02*
X79425Y-50909D01*
X79312Y-50909D02*
X79312Y-50515D01*
X79350Y-50571D01*
X79387Y-50609D01*
X79425Y-50628D01*
X78862Y-50515D02*
X78937Y-50515D01*
X78975Y-50534D01*
X78993Y-50553D01*
X79031Y-50609D01*
X79050Y-50684D01*
X79050Y-50834D01*
X79031Y-50871D01*
X79012Y-50890D01*
X78975Y-50909D01*
X78900Y-50909D01*
X78862Y-50890D01*
X78843Y-50871D01*
X78825Y-50834D01*
X78825Y-50740D01*
X78843Y-50703D01*
X78862Y-50684D01*
X78900Y-50665D01*
X78975Y-50665D01*
X79012Y-50684D01*
X79031Y-50703D01*
X79050Y-50740D01*
X81177Y-51303D02*
X81309Y-51303D01*
X81309Y-51509D02*
X81309Y-51115D01*
X81121Y-51115D01*
X80802Y-51509D02*
X80802Y-51303D01*
X80821Y-51265D01*
X80859Y-51246D01*
X80934Y-51246D01*
X80971Y-51265D01*
X80802Y-51490D02*
X80840Y-51509D01*
X80934Y-51509D01*
X80971Y-51490D01*
X80990Y-51453D01*
X80990Y-51415D01*
X80971Y-51378D01*
X80934Y-51359D01*
X80840Y-51359D01*
X80802Y-51340D01*
X80446Y-51490D02*
X80484Y-51509D01*
X80559Y-51509D01*
X80596Y-51490D01*
X80615Y-51471D01*
X80634Y-51434D01*
X80634Y-51321D01*
X80615Y-51284D01*
X80596Y-51265D01*
X80559Y-51246D01*
X80484Y-51246D01*
X80446Y-51265D01*
X80128Y-51490D02*
X80165Y-51509D01*
X80240Y-51509D01*
X80278Y-51490D01*
X80296Y-51453D01*
X80296Y-51303D01*
X80278Y-51265D01*
X80240Y-51246D01*
X80165Y-51246D01*
X80128Y-51265D01*
X80109Y-51303D01*
X80109Y-51340D01*
X80296Y-51378D01*
X79884Y-51509D02*
X79921Y-51490D01*
X79940Y-51453D01*
X79940Y-51115D01*
X79584Y-51490D02*
X79621Y-51509D01*
X79696Y-51509D01*
X79734Y-51490D01*
X79753Y-51453D01*
X79753Y-51303D01*
X79734Y-51265D01*
X79696Y-51246D01*
X79621Y-51246D01*
X79584Y-51265D01*
X79565Y-51303D01*
X79565Y-51340D01*
X79753Y-51378D01*
X79415Y-51490D02*
X79378Y-51509D01*
X79303Y-51509D01*
X79265Y-51490D01*
X79246Y-51453D01*
X79246Y-51434D01*
X79265Y-51396D01*
X79303Y-51378D01*
X79359Y-51378D01*
X79396Y-51359D01*
X79415Y-51321D01*
X79415Y-51303D01*
X79396Y-51265D01*
X79359Y-51246D01*
X79303Y-51246D01*
X79265Y-51265D01*
X79096Y-51490D02*
X79059Y-51509D01*
X78984Y-51509D01*
X78946Y-51490D01*
X78928Y-51453D01*
X78928Y-51434D01*
X78946Y-51396D01*
X78984Y-51378D01*
X79040Y-51378D01*
X79078Y-51359D01*
X79096Y-51321D01*
X79096Y-51303D01*
X79078Y-51265D01*
X79040Y-51246D01*
X78984Y-51246D01*
X78946Y-51265D01*
X78815Y-51246D02*
X78665Y-51246D01*
X78759Y-51115D02*
X78759Y-51453D01*
X78740Y-51490D01*
X78703Y-51509D01*
X78665Y-51509D01*
X78384Y-51490D02*
X78422Y-51509D01*
X78497Y-51509D01*
X78534Y-51490D01*
X78553Y-51453D01*
X78553Y-51303D01*
X78534Y-51265D01*
X78497Y-51246D01*
X78422Y-51246D01*
X78384Y-51265D01*
X78365Y-51303D01*
X78365Y-51340D01*
X78553Y-51378D01*
X78028Y-51490D02*
X78065Y-51509D01*
X78140Y-51509D01*
X78178Y-51490D01*
X78197Y-51471D01*
X78215Y-51434D01*
X78215Y-51321D01*
X78197Y-51284D01*
X78178Y-51265D01*
X78140Y-51246D01*
X78065Y-51246D01*
X78028Y-51265D01*
X77859Y-51509D02*
X77859Y-51115D01*
X77690Y-51509D02*
X77690Y-51303D01*
X77709Y-51265D01*
X77747Y-51246D01*
X77803Y-51246D01*
X77840Y-51265D01*
X77859Y-51284D01*
G54D12*
X78050Y-54550D02*
X77150Y-54550D01*
X77150Y-54550D02*
X77150Y-53900D01*
X78050Y-53200D02*
X78050Y-52550D01*
X78050Y-52550D02*
X77150Y-52550D01*
X77150Y-52550D02*
X77150Y-53200D01*
X78050Y-53900D02*
X78050Y-54550D01*
G54D13*
G36*
X78572Y-54628D02*
X78615Y-54628D01*
X78615Y-53420D01*
X78615Y-53366D01*
X78615Y-53309D01*
X78615Y-53265D01*
X78616Y-53232D01*
X78617Y-53209D01*
X78619Y-53194D01*
X78621Y-53185D01*
X78624Y-53182D01*
X78634Y-53180D01*
X78655Y-53175D01*
X78686Y-53169D01*
X78725Y-53161D01*
X78769Y-53153D01*
X78798Y-53148D01*
X78844Y-53139D01*
X78886Y-53131D01*
X78921Y-53124D01*
X78947Y-53118D01*
X78962Y-53115D01*
X78966Y-53113D01*
X78970Y-53105D01*
X78979Y-53086D01*
X78991Y-53059D01*
X79005Y-53027D01*
X79020Y-52992D01*
X79035Y-52956D01*
X79049Y-52922D01*
X79061Y-52893D01*
X79069Y-52871D01*
X79074Y-52858D01*
X79074Y-52857D01*
X79070Y-52847D01*
X79060Y-52828D01*
X79044Y-52804D01*
X79029Y-52781D01*
X78985Y-52719D01*
X78950Y-52667D01*
X78923Y-52626D01*
X78903Y-52595D01*
X78890Y-52573D01*
X78884Y-52560D01*
X78883Y-52558D01*
X78888Y-52550D01*
X78901Y-52534D01*
X78921Y-52512D01*
X78947Y-52485D01*
X78975Y-52455D01*
X79006Y-52424D01*
X79037Y-52393D01*
X79066Y-52364D01*
X79092Y-52339D01*
X79113Y-52319D01*
X79128Y-52307D01*
X79134Y-52303D01*
X79142Y-52307D01*
X79160Y-52318D01*
X79186Y-52334D01*
X79218Y-52356D01*
X79256Y-52381D01*
X79286Y-52402D01*
X79327Y-52429D01*
X79363Y-52454D01*
X79394Y-52474D01*
X79418Y-52489D01*
X79434Y-52498D01*
X79439Y-52501D01*
X79449Y-52498D01*
X79470Y-52491D01*
X79498Y-52480D01*
X79531Y-52466D01*
X79567Y-52452D01*
X79602Y-52436D01*
X79634Y-52422D01*
X79661Y-52409D01*
X79680Y-52400D01*
X79689Y-52394D01*
X79689Y-52394D01*
X79692Y-52384D01*
X79697Y-52363D01*
X79703Y-52332D01*
X79711Y-52293D01*
X79719Y-52249D01*
X79724Y-52225D01*
X79732Y-52179D01*
X79741Y-52136D01*
X79748Y-52100D01*
X79754Y-52072D01*
X79758Y-52054D01*
X79759Y-52050D01*
X79762Y-52045D01*
X79765Y-52042D01*
X79772Y-52039D01*
X79783Y-52037D01*
X79800Y-52036D01*
X79825Y-52035D01*
X79860Y-52035D01*
X79906Y-52034D01*
X79942Y-52034D01*
X79993Y-52035D01*
X80038Y-52035D01*
X80075Y-52037D01*
X80103Y-52038D01*
X80119Y-52040D01*
X80123Y-52041D01*
X80125Y-52049D01*
X80130Y-52070D01*
X80136Y-52100D01*
X80144Y-52139D01*
X80152Y-52183D01*
X80159Y-52220D01*
X80168Y-52267D01*
X80177Y-52311D01*
X80185Y-52348D01*
X80192Y-52376D01*
X80197Y-52394D01*
X80200Y-52399D01*
X80210Y-52406D01*
X80230Y-52415D01*
X80258Y-52427D01*
X80291Y-52441D01*
X80327Y-52455D01*
X80362Y-52469D01*
X80395Y-52482D01*
X80423Y-52491D01*
X80443Y-52497D01*
X80452Y-52499D01*
X80460Y-52494D01*
X80479Y-52482D01*
X80505Y-52465D01*
X80538Y-52443D01*
X80576Y-52418D01*
X80602Y-52399D01*
X80642Y-52372D01*
X80677Y-52348D01*
X80708Y-52328D01*
X80732Y-52313D01*
X80746Y-52305D01*
X80750Y-52303D01*
X80758Y-52308D01*
X80774Y-52321D01*
X80796Y-52342D01*
X80824Y-52369D01*
X80857Y-52401D01*
X80882Y-52426D01*
X80923Y-52467D01*
X80955Y-52500D01*
X80978Y-52525D01*
X80992Y-52543D01*
X81000Y-52555D01*
X81001Y-52562D01*
X80996Y-52571D01*
X80985Y-52590D01*
X80967Y-52618D01*
X80945Y-52651D01*
X80920Y-52688D01*
X80905Y-52710D01*
X80879Y-52749D01*
X80855Y-52785D01*
X80835Y-52816D01*
X80821Y-52839D01*
X80813Y-52854D01*
X80812Y-52858D01*
X80815Y-52868D01*
X80822Y-52888D01*
X80833Y-52916D01*
X80847Y-52949D01*
X80861Y-52985D01*
X80876Y-53021D01*
X80891Y-53053D01*
X80903Y-53081D01*
X80913Y-53101D01*
X80918Y-53111D01*
X80918Y-53111D01*
X80927Y-53114D01*
X80947Y-53119D01*
X80977Y-53126D01*
X81015Y-53134D01*
X81059Y-53142D01*
X81088Y-53148D01*
X81135Y-53157D01*
X81177Y-53165D01*
X81213Y-53172D01*
X81241Y-53177D01*
X81258Y-53181D01*
X81262Y-53182D01*
X81265Y-53190D01*
X81268Y-53210D01*
X81269Y-53239D01*
X81271Y-53275D01*
X81272Y-53317D01*
X81272Y-53360D01*
X81272Y-53404D01*
X81272Y-53446D01*
X81270Y-53483D01*
X81268Y-53514D01*
X81266Y-53535D01*
X81263Y-53545D01*
X81263Y-53545D01*
X81253Y-53548D01*
X81232Y-53553D01*
X81202Y-53560D01*
X81163Y-53568D01*
X81119Y-53576D01*
X81095Y-53581D01*
X81050Y-53589D01*
X81008Y-53598D01*
X80973Y-53606D01*
X80947Y-53612D01*
X80931Y-53617D01*
X80928Y-53619D01*
X80923Y-53628D01*
X80914Y-53648D01*
X80902Y-53676D01*
X80887Y-53709D01*
X80873Y-53746D01*
X80858Y-53783D01*
X80844Y-53818D01*
X80832Y-53848D01*
X80824Y-53872D01*
X80820Y-53886D01*
X80819Y-53888D01*
X80823Y-53896D01*
X80834Y-53914D01*
X80851Y-53940D01*
X80872Y-53972D01*
X80897Y-54009D01*
X80911Y-54029D01*
X80938Y-54068D01*
X80961Y-54103D01*
X80980Y-54134D01*
X80994Y-54157D01*
X81002Y-54171D01*
X81003Y-54175D01*
X80998Y-54182D01*
X80985Y-54198D01*
X80965Y-54220D01*
X80940Y-54247D01*
X80911Y-54277D01*
X80881Y-54308D01*
X80850Y-54339D01*
X80821Y-54368D01*
X80795Y-54393D01*
X80774Y-54413D01*
X80760Y-54426D01*
X80753Y-54430D01*
X80746Y-54426D01*
X80729Y-54416D01*
X80704Y-54399D01*
X80672Y-54378D01*
X80636Y-54353D01*
X80614Y-54338D01*
X80575Y-54312D01*
X80540Y-54289D01*
X80510Y-54269D01*
X80487Y-54255D01*
X80473Y-54247D01*
X80470Y-54246D01*
X80460Y-54249D01*
X80441Y-54258D01*
X80416Y-54270D01*
X80399Y-54279D01*
X80369Y-54294D01*
X80349Y-54303D01*
X80334Y-54303D01*
X80323Y-54294D01*
X80313Y-54275D01*
X80300Y-54243D01*
X80298Y-54239D01*
X80290Y-54220D01*
X80278Y-54189D01*
X80262Y-54150D01*
X80243Y-54103D01*
X80221Y-54052D01*
X80199Y-53997D01*
X80184Y-53962D01*
X80162Y-53909D01*
X80142Y-53859D01*
X80125Y-53816D01*
X80110Y-53779D01*
X80099Y-53751D01*
X80093Y-53733D01*
X80091Y-53728D01*
X80097Y-53719D01*
X80111Y-53705D01*
X80132Y-53688D01*
X80141Y-53681D01*
X80200Y-53632D01*
X80245Y-53580D01*
X80278Y-53525D01*
X80299Y-53465D01*
X80309Y-53398D01*
X80310Y-53362D01*
X80304Y-53290D01*
X80285Y-53224D01*
X80252Y-53163D01*
X80207Y-53108D01*
X80190Y-53092D01*
X80133Y-53050D01*
X80071Y-53020D01*
X80006Y-53002D01*
X79940Y-52997D01*
X79873Y-53003D01*
X79809Y-53022D01*
X79748Y-53052D01*
X79693Y-53095D01*
X79674Y-53113D01*
X79629Y-53170D01*
X79598Y-53230D01*
X79579Y-53295D01*
X79573Y-53366D01*
X79573Y-53367D01*
X79580Y-53438D01*
X79599Y-53505D01*
X79631Y-53566D01*
X79677Y-53622D01*
X79735Y-53674D01*
X79751Y-53686D01*
X79772Y-53702D01*
X79787Y-53716D01*
X79794Y-53726D01*
X79795Y-53727D01*
X79792Y-53737D01*
X79785Y-53757D01*
X79774Y-53784D01*
X79761Y-53816D01*
X79760Y-53820D01*
X79748Y-53849D01*
X79731Y-53888D01*
X79712Y-53935D01*
X79690Y-53987D01*
X79667Y-54042D01*
X79645Y-54097D01*
X79643Y-54101D01*
X79622Y-54151D01*
X79603Y-54196D01*
X79586Y-54236D01*
X79572Y-54268D01*
X79562Y-54291D01*
X79556Y-54304D01*
X79555Y-54305D01*
X79546Y-54305D01*
X79528Y-54298D01*
X79502Y-54287D01*
X79486Y-54279D01*
X79458Y-54265D01*
X79435Y-54254D01*
X79419Y-54247D01*
X79414Y-54246D01*
X79406Y-54250D01*
X79388Y-54261D01*
X79362Y-54277D01*
X79330Y-54298D01*
X79294Y-54323D01*
X79283Y-54330D01*
X79246Y-54356D01*
X79211Y-54379D01*
X79182Y-54399D01*
X79160Y-54413D01*
X79147Y-54422D01*
X79145Y-54423D01*
X79139Y-54425D01*
X79133Y-54424D01*
X79125Y-54420D01*
X79113Y-54412D01*
X79097Y-54397D01*
X79074Y-54376D01*
X79045Y-54347D01*
X79006Y-54309D01*
X79006Y-54309D01*
X78970Y-54272D01*
X78938Y-54239D01*
X78913Y-54212D01*
X78894Y-54190D01*
X78885Y-54177D01*
X78883Y-54174D01*
X78887Y-54164D01*
X78898Y-54145D01*
X78914Y-54118D01*
X78936Y-54085D01*
X78961Y-54048D01*
X78975Y-54027D01*
X79001Y-53989D01*
X79024Y-53954D01*
X79044Y-53925D01*
X79058Y-53903D01*
X79066Y-53890D01*
X79067Y-53888D01*
X79064Y-53879D01*
X79057Y-53859D01*
X79046Y-53832D01*
X79034Y-53799D01*
X79019Y-53763D01*
X79004Y-53727D01*
X78990Y-53692D01*
X78977Y-53661D01*
X78967Y-53638D01*
X78960Y-53624D01*
X78959Y-53622D01*
X78953Y-53617D01*
X78940Y-53613D01*
X78920Y-53607D01*
X78891Y-53600D01*
X78853Y-53592D01*
X78803Y-53583D01*
X78741Y-53571D01*
X78703Y-53564D01*
X78673Y-53559D01*
X78648Y-53554D01*
X78631Y-53550D01*
X78627Y-53549D01*
X78623Y-53547D01*
X78620Y-53543D01*
X78618Y-53533D01*
X78617Y-53518D01*
X78616Y-53495D01*
X78615Y-53463D01*
X78615Y-53420D01*
X78615Y-54628D01*
X79950Y-54628D01*
X81328Y-54628D01*
X81328Y-53250D01*
X81328Y-51872D01*
X79950Y-51872D01*
X78572Y-51872D01*
X78572Y-53250D01*
X78572Y-54628D01*
X78572Y-54628D01*
X78572Y-54628D01*
G37*
M02*
